<?xml version="1.0" encoding="UTF-8"?>
<svg id="Layer_1" xmlns="http://www.w3.org/2000/svg" version="1.1" xmlns:xlink="http://www.w3.org/1999/xlink" viewBox="0 0 1080 250">
  <!-- Generator: Adobe Illustrator 30.0.0, SVG Export Plug-In . SVG Version: 2.1.1 Build 123)  -->
  <defs>
    <style>
      .st0 {
        fill: #f1f3f3;
      }

      .st1 {
        fill: url(#linear-gradient2);
      }

      .st2 {
        fill: #361e12;
      }

      .st3 {
        fill: #9b6e46;
      }

      .st4 {
        fill: url(#linear-gradient1);
      }

      .st5 {
        fill: #fbfcf8;
      }

      .st6 {
        fill: #bbb9b5;
      }

      .st7 {
        fill: url(#linear-gradient4);
      }

      .st8 {
        fill: url(#linear-gradient5);
      }

      .st9 {
        fill: url(#linear-gradient3);
      }

      .st10 {
        fill: #714c30;
      }

      .st11 {
        fill: #d5a071;
      }

      .st12 {
        fill: url(#linear-gradient);
      }

      .st13 {
        fill: #7c4c2c;
      }

      .st14 {
        fill: #a97248;
      }
    </style>
    <linearGradient id="linear-gradient" x1="58.26" y1="137.38" x2="263.08" y2="137.38" gradientUnits="userSpaceOnUse">
      <stop offset="0" stop-color="#ac7b50"/>
      <stop offset=".47" stop-color="#b38458"/>
      <stop offset="1" stop-color="#986732"/>
    </linearGradient>
    <linearGradient id="linear-gradient1" x1="55.46" y1="62" x2="237.86" y2="167.32" gradientUnits="userSpaceOnUse">
      <stop offset="0" stop-color="#ba8456"/>
      <stop offset=".22" stop-color="#c38f5f"/>
      <stop offset=".49" stop-color="#bc875b"/>
      <stop offset=".74" stop-color="#a06b3d"/>
      <stop offset="1" stop-color="#a2693c"/>
    </linearGradient>
    <linearGradient id="linear-gradient2" x1="335.51" y1="63.93" x2="273" y2="172.19" gradientUnits="userSpaceOnUse">
      <stop offset="0" stop-color="#e6e4e5"/>
      <stop offset="1" stop-color="#afb0ab"/>
    </linearGradient>
    <linearGradient id="linear-gradient3" x1="321.06" y1="147" x2="279.82" y2="75.56" gradientUnits="userSpaceOnUse">
      <stop offset="0" stop-color="#80807f"/>
      <stop offset="1" stop-color="#bababb"/>
    </linearGradient>
    <linearGradient id="linear-gradient4" x1="105.71" y1="92.2" x2="233.57" y2="166.02" gradientUnits="userSpaceOnUse">
      <stop offset="0" stop-color="#fff"/>
      <stop offset="1" stop-color="#8b8c86"/>
    </linearGradient>
    <linearGradient id="linear-gradient5" x1="130.31" y1="106.13" x2="210.05" y2="152.17" gradientUnits="userSpaceOnUse">
      <stop offset=".26" stop-color="#8c8b87"/>
      <stop offset="1" stop-color="#eff1ee"/>
    </linearGradient>
  </defs>
  <g>
    <g>
      <path class="st2" d="M357.57,84.31c-3.83-24.69-29.78-41.2-53.87-36.87-2.78.5-5.61,1.46-8.4,2.03.38-4.87.35-10.29-.5-15.08-1.55-8.67-10.99-12.65-17.97-16.04-7.82-3.8-16.11-5.41-24.55-7.15-15.83-3.35-31.88-5.59-48.02-6.71-11.68-.75-27.51-1.42-39.15-1.08-12.21.17-24.41.75-36.58,1.73-14.75,1.42-29.4,3.73-43.87,6.92-12.3,2.77-26.26,6.08-35.7,15.07-5.43,5.17-4.22,12.16-4.78,18.92-1.21,15.48-1.43,31.32.19,46.79.68,6.49,1.16,12.93,2.05,19.39,5.17,36.14,18.92,72.97,45.49,98.84,3.01,2.93,6.65,6.07,10.17,8.36-7.05-.02-29.72,3.98-34.47,8.55-.78.75-1.23,1.64-1.21,2.73.02,1.26.63,2.34,1.54,3.19,9.68,8.96,71.34,12.25,85.96,12.59,18,.46,36.02.17,54-.86,8.81-.56,19.33-1.32,28-2.46,9.25-1.19,31.1-4.81,38.12-10.41.05-3.62-.33-5.02-3.91-6.57-9.3-4.02-21.75-6.76-31.83-6.77,11.39-9.14,22.9-21.09,29.93-33.98,30.49-5.79,58.6-19.67,76.49-45.97,11.21-16.47,15.97-35.18,12.87-55.14ZM290.5,127.78c2.78-12.25,3.88-24.88,5.76-37.28.44-2.94,3.52-5.14,5.9-6.58,3.2-1.86,6.73-3.06,10.43-3.19,3.95.16,9.11,3.24,10.88,6.84,3.54,7.17,2.65,14.76.06,22.1-2.57,7.08-7.8,14.99-13.2,20.32-3.69,3.64-10.81,9.1-15.32,11.22-3.11,1.43-6.19,2.93-9.24,4.5,2.22-5.54,3.41-12.08,4.74-17.93Z"/>
      <path class="st13" d="M102.72,206.62s43.44,45.83,123.47,9.23c23.94-16.76,64.3-50.39,61.56-166.79,0,0-74.08,35.56-187.53,14.47-43.34-6.38-41.97-6.38-41.97-6.38,0,0-.57,122.22,44.46,149.46Z"/>
      <path class="st12" d="M263,66.27s4.92,100.44-64.17,138.07c-18.13,12.31-49.94,21.32-96.11,2.28-14.71-16.65-41.29-50.49-43.22-120.27-.9-23.61-1.24-29.2-1.24-29.2,0,0,54.59,15.37,114.81,13.06,25.03-.97,35.33-.89,50.72-3.84,0,0,18.36-.26,39.22-1.87v1.76Z"/>
      <path class="st4" d="M263,66.27s4.92,100.44-64.17,138.07c-18.13,12.31-49.94,21.32-96.11,2.28-14.71-16.65-41.29-50.49-43.22-120.27-.9-23.61-1.24-29.2-1.24-29.2,0,0,54.59,15.37,114.81,13.06,25.03-.97,35.33-.89,50.72-3.84,0,0,18.36-.26,39.22-1.87v1.76Z"/>
      <path class="st11" d="M53.7,49.06s-8.89,106.71,49.02,157.56c0,0-42.75-43.78-40.36-146.04,0,0,22.92,11.63,59.51,13.34l12.65-5.47s-68.29-7.3-80.83-19.38Z"/>
      <path class="st14" d="M287.89,55.9s-25.1,18.67-64.09,10.47c0,0,40.36-5.91,63.96-17.31l.13,6.84Z"/>
      <path class="st10" d="M85.31,45.97s-13.79,5.64,15.85,9.63,81.67,6.64,122.24,1.55c40.56-5.08,43.98-8.62,45.58-11.18,1.6-2.57-66.12-19.85-114.46-15.65-48.34,4.2-69.2,15.65-69.2,15.65Z"/>
      <path class="st3" d="M79.96,42.72l4.33,7.75s-5.24,3.19,13.22,0c18.01-3.19,57.86-22,132.34-4.5,12.68,3.36,27.48,1.82-8.34-7.9-21.39-6.3-46.02-10.86-82.96-5.16-36.94,5.7-58.6,9.8-58.6,9.8Z"/>
      <path class="st2" d="M67.19,43.63s-1.37,4.1,17.1,6.84c5.24-3.42,57.41-25.16,156.42-9.8,23.03,4.56,26.68,8.39,26.68,8.39l8.1-3.99-7.18-12.84s-63.39-19.33-121.99-8.18c-58.6,11.15-76.61,6.36-79.12,19.59Z"/>
      <path class="st1" d="M347.42,109.07c-12.08,53.13-71.94,64.55-71.94,64.55l1.39-3.36,5.79-14c47.88-14.82,52.22-49.94,52.44-61.34-2.96-35.11-39.22-19.79-39.22-19.79v-15.19c49.25-14.23,54.5,28.6,51.53,49.12Z"/>
      <path class="st6" d="M55.39,35.37s5.72-19.02,100.73-21.72c62.93-2.22,105.51,7.01,118.34,14.02,11.29,5.99,17.96,9.58-.86,18.3-3.76-1.71-29.41-15.56-87.9-17.61-39.16-.17-79.52-1.54-115.95,17.61,0,0-14.54-2.91-14.36-10.6Z"/>
      <path class="st5" d="M274.45,27.67s-37.52-9.47-123.64-9.75c-77.92,4.62-95.42,17.44-95.42,17.44,0,0,1.8-12.48,53.15-19.15,37.49-3.59,45-4.52,91.52-2.26,35.58,1.92,61.74,6.37,74.4,13.72Z"/>
      <path class="st9" d="M335.79,121.84c-14.59,21.43-18.28,29.52-47.9,43.49-4.34,1.98-7.98,3.61-11.02,4.94l5.79-14c47.88-14.82,52.22-49.94,52.44-61.34-2.96-35.11-39.22-19.79-39.22-19.79v-8.8c3.99-2.76,11.4-5.2,24.85-2.87,10.49,2.51,34.2,19.38,15.05,58.37Z"/>
    </g>
    <path class="st0" d="M235.04,108.55c-1.48-3.8-2.67-6.23-4.53-9.82,2.24-3.29,5.07-7.48,6.66-11.07,3.41-7.69-5.7-15.27-10.92-19.74-2.23-1.5-4.51-3.08-6.82-4.47-5.29-2.87-9.49-1.59-11.76-.36l-.73.5-1.24.85-.06.04-1.5.98c-1.41.93-2.81,1.89-4.18,2.88-1.51-.62-3.52-1.37-4.93-2.11-.63-.1-3.21-1.24-3.88-1.52l-2.4-9.92c-3.09-9.57-8.39-9.1-19.14-8.9-9.58.18-18.11-1.06-20.4,9.8-.46,6.9-1.56,8.86-1.56,8.86l-2.62,1.07c-2.36.99-5.69,1.91-8.16,2.64-1.78-.87-5.31-3.28-7.38-4.62-.14-.09-.27-.17-.39-.25,0,0,.02,0,.03,0-4.01-2.64-7.54-1.17-8.93-.36-2.63,1.71-5.2,3.52-7.7,5.43-3.78,3.23-10.5,8.76-10.96,14-.36,4.1,4.22,12.02,6.49,15.55-1.6,3.45-3.1,6.94-4.51,10.47-2.54,1-5.15,1.84-7.8,2.52-2.6,1.19-8.11,1.78-8.94,4.96-1.9,7.31-2.03,19.28.12,26.43,1.37,4.55,12.53,5.76,16.66,7.24,1.45,3.15,3.23,6.86,4.53,10.03-2.49,5.84-6.92,10.88-6.18,17.16,2.54,4.25,5.98,7.68,9.75,11.16,4.87,4.5,12.23,12.09,19.42,7.39,1.24-.81,2.91-2.15,4.15-2.83l3.77-2.89c2.64,1.11,5.98,2.27,8.44,3.39.19,1.26.39,2.51.62,3.76.16.32.59,2.21.72,2.68.87,3.2,1.4,6.41,3.23,9.21,1.25,1.91,4.17,3.12,6.3,3.41,5.04.69,19.52,1.28,23.86.3,1.26-.27,2.44-.81,3.48-1.58,4.69-3.4,4.94-11.91,5.93-17.49l8.82-3.98c7.2,5.18,12.82,11.31,21.59,4.62,5.45-4.16,10.69-8.92,14.62-14.58,1.76-2.54,1.48-5.3.73-8.09-1.79-3.62-4.05-7.02-6.26-10.4,1.88-3.27,3.4-6.74,4.53-10.34,4.33-1.77,11.87-2.97,15.64-5.46.01-.03.88-1.22.99-1.4,1.06-1.77,1.19-2.65,1.44-4.59.37-4.55.02-9.3.25-13.53.84-15.29-7.47-12.71-18.88-17.04ZM173.37,157.71c-15.99,1.57-30.22-10.12-31.77-26.11-1.55-15.99,10.17-30.2,26.17-31.72,15.95-1.52,30.13,10.17,31.67,26.12,1.54,15.95-10.12,30.14-26.07,31.71Z"/>
    <path class="st2" d="M253.92,125.59c.84-15.29-7.47-12.71-18.88-17.04-1.48-3.8-2.67-6.23-4.53-9.82,2.24-3.29,5.07-7.48,6.66-11.07,3.41-7.69-5.7-15.27-10.92-19.74-2.23-1.5-4.51-3.08-6.82-4.46-6.46-3.5-11.3-.82-12.98.4.06,0,.12-.01.18-.02l-2.5,1.64c-1.41.93-2.8,1.89-4.18,2.87-1.51-.62-3.52-1.37-4.93-2.11-.64-.1-3.21-1.24-3.88-1.52l-2.4-9.92c-3.09-9.57-8.38-9.09-19.14-8.89-9.58.18-18.11-1.05-20.4,9.8-.46,6.9-1.56,8.86-1.56,8.86l-2.62,1.07c-2.36.99-5.69,1.92-8.16,2.64-1.78-.87-5.31-3.28-7.38-4.62-.14-.09-.27-.17-.39-.25,0,0,.02,0,.03,0-4.01-2.64-7.54-1.17-8.93-.36-2.63,1.71-5.2,3.52-7.7,5.43-3.78,3.23-10.5,8.75-10.96,14-.36,4.1,4.22,12.02,6.49,15.55-1.6,3.45-3.1,6.94-4.51,10.47-2.55,1-5.15,1.84-7.8,2.52-2.6,1.19-8.11,1.78-8.94,4.96-1.9,7.3-2.03,19.28.12,26.43,1.37,4.55,12.53,5.76,16.66,7.25,1.45,3.15,3.23,6.86,4.53,10.03-2.49,5.84-6.92,10.87-6.18,17.16,2.54,4.25,5.98,7.68,9.75,11.16,4.87,4.5,12.23,12.09,19.42,7.39,1.24-.81,2.91-2.15,4.15-2.83l3.77-2.89c2.64,1.1,5.98,2.27,8.44,3.39.18,1.26.39,2.51.62,3.76.16.32.59,2.21.72,2.68.87,3.19,1.4,6.41,3.23,9.21,1.25,1.91,4.17,3.12,6.3,3.41,5.03.69,19.52,1.28,23.86.3,1.26-.27,2.44-.81,3.47-1.58,4.69-3.4,4.94-11.91,5.94-17.49l8.82-3.98c7.2,5.18,12.82,11.31,21.59,4.62,5.45-4.16,10.69-8.92,14.62-14.58,1.77-2.55,1.48-5.3.73-8.09-1.8-3.62-4.05-7.02-6.26-10.4,1.88-3.27,3.4-6.74,4.53-10.34,4.33-1.77,11.87-2.97,15.64-5.45.01-.03.88-1.22,1-1.41,1.06-1.76,1.19-2.65,1.44-4.59.37-4.55.02-9.3.25-13.53ZM245.31,139.24c-1.87,1.21-7.34,2.78-9.39,3.09-7.64,1.14-6.81,4.36-9.44,10.44-1.15,2.66-3.78,5.57-3.88,8.76l.8,1.99c1.33,2.19,6.39,10.02,5.76,12.21-.68,2.37-11.62,12.33-14,13.27-.94.37-2,.05-2.86-.37-3.31-1.63-8.8-8.21-12.3-7.08-2.52.82-4.9,2.26-7.33,3.32-1.68.74-5.23,1.76-6.58,2.75-.54.4-.93.89-1.21,1.5-1.48,3.24-.83,14.17-4.43,15.54-2.35.89-19.32.53-21.76-.61-.23-.11-.21-.1-.38-.21-2.39-2.69-2.62-13.29-3.78-15.91-2.01-1.58-5.08-2.24-7.49-3.22-1.68-.69-6.91-3.68-8.47-3.29-4.41,1.11-8.85,7.41-13.5,7.9-3.18-1.85-11.58-10.24-14.06-13.28-3.01-4.36,7.29-13.58,4.63-18.03-1.81-3.04-4.52-11.75-6.41-14.03l-.7-.33c-1.64-1.58-11.42-2.3-14.47-4.76-1.48-2.53-1.21-15.65-.57-18.91.66-3.36,15.25-3.66,16.39-6.45,1.26-3.1,6.47-14.03,6.17-16.62-.56-.47-1-1.68-1.31-2.38-1.11-1.5-4.87-9.08-5.66-10.94.7-2.9,11.27-11.29,14.04-13.5,1.21-.97,1.67-1.29,3.15-1.08,3.29,2.05,6.29,5.04,9.66,7.07,3.23.74,4.75-.94,7.66-2.14,2.6-1.1,7.71-1.89,9.62-3.82,2.59-2.67,1.87-15.95,5.97-16.41,3.46-.39,17.74-1.24,20.25.29,1.69,3.3,2.32,7.67,3.24,11.28.39,1.53.34,3.48,1.53,4.54,2.82,1.44,13.05,5.96,16.17,6.31,3.06.34,10.96-8.94,14.78-6.89,3.21,1.72,12.41,10.37,14.47,13.36.07,6.23-7.18,10.83-6.82,16.1-.02-.25,6.79,15.07,7.03,15.4,3.31,2.09,12.1,3.11,15.8,5.58,1.31,2.96,1.01,16.54-.34,19.56Z"/>
    <path class="st7" d="M173.89,203.66c-5.38,0-11.76-.38-14.34-.73-.05,0-.11-.02-.18-.05-.42-.96-.75-2.28-1.12-3.76-.16-.66-.34-1.34-.53-2.05-.03-.11-.07-.27-.11-.46-.2-.83-.37-1.5-.55-2.1-.16-.9-.31-1.83-.45-2.82-.46-3.12-2.47-5.79-5.35-7.1-1.67-.76-3.54-1.48-5.35-2.18-1.21-.47-2.35-.91-3.34-1.32-1.15-.48-2.37-.72-3.58-.72-2.01,0-4,.65-5.65,1.92l-3.31,2.54c-.99.6-1.93,1.28-2.79,1.9-.41.29-.82.59-1.13.8-.33-.1-1.07-.4-2.3-1.27-1.65-1.16-3.39-2.79-4.93-4.22-.32-.3-.63-.59-.94-.87-2.77-2.56-4.95-4.73-6.64-6.98.41-1.42,1.38-3.2,2.45-5.17.92-1.7,1.97-3.62,2.86-5.72.97-2.28.99-4.84.06-7.13-1.07-2.63-2.37-5.43-3.63-8.13-.36-.78-.72-1.54-1.06-2.27-1.04-2.26-2.95-4.01-5.29-4.85-1.55-.56-3.35-.99-5.27-1.44-1.55-.37-4.41-1.05-6.13-1.7-.91-4.67-.95-11.57-.1-16.8.22-.07.43-.13.61-.19.94-.29,1.91-.58,2.88-.96,2.78-.75,5.54-1.65,8.2-2.69,2.39-.94,4.28-2.82,5.23-5.21,1.34-3.37,2.79-6.73,4.3-9.99,1.34-2.88,1.11-6.25-.61-8.92-2.83-4.41-4.5-8.13-4.94-9.76.25-.45.82-1.33,2.1-2.69,1.57-1.67,3.5-3.31,5.05-4.63l.29-.25c1.97-1.49,3.99-2.94,6.05-4.3l.08.05c.44.28.95.62,1.49.97,2.89,1.9,5.07,3.31,6.83,4.18,1.28.63,2.69.95,4.09.95.88,0,1.76-.13,2.62-.38.31-.09.64-.19.97-.29,2.48-.73,5.57-1.63,8.09-2.68l2.59-1.05c1.95-.8,3.57-2.23,4.6-4.08,1.34-2.4,2.23-6.43,2.65-11.99.21-.8.42-1.15.48-1.25.12-.06.61-.27,1.83-.43,1.62-.2,3.73-.21,5.96-.22,1,0,2.03,0,3.09-.03l1.18-.02c1.3-.03,2.54-.05,3.63-.05,2.9,0,3.98.2,4.37.33.14.2.47.75.87,1.92l2.31,9.55c.69,2.85,2.69,5.21,5.39,6.36.08.03.19.08.33.14,1.64.71,2.8,1.19,3.77,1.51,1.28.61,2.64,1.16,3.87,1.65.34.13.66.26.96.39,1.13.46,2.32.69,3.5.69,1.91,0,3.81-.59,5.41-1.74,1.23-.88,2.53-1.78,3.86-2.66l1.47-.96s.2-.14.23-.15l1.43-.97c.23-.09.47-.13.71-.13.61,0,1.28.27,1.79.53,1.61.98,3.25,2.08,4.98,3.25.27.18.53.36.8.54,1.86,1.59,4.15,3.55,5.87,5.54,1.58,1.82,2,2.86,2.1,3.22-1.34,2.93-4.1,6.98-5.76,9.42-1.92,2.82-2.14,6.46-.57,9.49,1.85,3.58,2.83,5.61,4.13,8.93.95,2.45,2.9,4.38,5.35,5.31,3.14,1.19,6.04,1.93,8.37,2.52,1.49.38,3.46.88,4.36,1.28.12.52.3,1.73.18,4.05-.12,2.17-.1,4.37-.09,6.49.02,2.32.03,4.51-.12,6.56-1.6.58-3.81,1.2-5.32,1.62-2.39.67-4.87,1.36-7.03,2.24-2.56,1.04-4.52,3.17-5.35,5.8-.93,2.96-2.19,5.82-3.73,8.51-1.74,3.03-1.63,6.77.28,9.7l.34.51c1.81,2.77,3.53,5.4,4.92,8.04,0,.04.02.08.02.12-2.82,3.91-6.83,7.82-12.24,11.95-1.11.85-1.74,1.03-1.84,1.03,0,0-.37-.02-1.36-.56-1.3-.72-2.88-1.91-4.56-3.18-.89-.67-1.8-1.36-2.78-2.07-1.6-1.16-3.51-1.75-5.42-1.75-1.29,0-2.6.27-3.82.82l-8.82,3.98c-2.79,1.26-4.78,3.81-5.32,6.83-.21,1.19-.39,2.44-.56,3.65-.28,2-.57,4.07-1.01,5.78-.34,1.32-.65,1.97-.8,2.22-.27.05-1.82.28-6.17.28ZM170.55,90.46c-1.22,0-2.45.06-3.67.17-10.2.97-19.41,5.86-25.94,13.77-6.52,7.91-9.57,17.88-8.58,28.08,1.91,19.75,18.3,34.64,38.12,34.64,1.26,0,2.53-.06,3.79-.19,21-2.07,36.43-20.84,34.39-41.84-1.91-19.75-18.3-34.64-38.12-34.64Z"/>
    <path class="st8" d="M210.59,107.09c-10.81-19.81-34.39-28.86-55.68-21.37-21.29,7.49-34.01,29.3-30.05,51.52,3.2,17.95,16.7,32.32,34.41,36.64,17.71,4.32,36.31-2.22,47.42-16.67,11.11-14.46,12.64-34.11,3.9-50.11ZM141.6,131.59c-1.55-15.99,10.17-30.2,26.17-31.72,15.95-1.52,30.13,10.17,31.67,26.12,1.55,15.95-10.12,30.14-26.07,31.71-15.99,1.57-30.22-10.12-31.77-26.11Z"/>
    <path class="st2" d="M207.41,125.79c-.41-1.93-.47-3.48-1.03-5.64-2.12-8.16-5.55-13.1-11.45-18.83-5.55-4.6-9.51-6.42-16.28-8.51-8.76-1.5-13.65-1.24-22.1,1.79-15.55,7.5-21.88,16.81-23.18,33.9.25,4.71.54,8.14,2.2,12.63,5.95,16.09,20.76,25.22,37.77,24.11,1.17-.07,2.33-.19,3.49-.36,14.51-1.8,26.41-13.37,29.73-27.4.97-4.1.93-7.54.85-11.69ZM173.37,157.71c-15.99,1.57-30.22-10.12-31.77-26.11-1.55-15.99,10.17-30.2,26.17-31.72,15.95-1.52,30.13,10.17,31.67,26.12,1.55,15.95-10.12,30.14-26.07,31.71Z"/>
  </g>
  <g>
    <path class="st2" d="M458.76,99.59c-9.09-1.28-20.55-2-27.82,3.64l-1.46-28.54s-.54-10.18-12.72-10.18-18.18,1.26-20.55,5.45v108.73s6.18,22.9,50.72,23.81c30.73,0,48.36-16.9,51.09-45.63,2.37-26.91-7.81-52.9-39.26-57.27ZM449.91,176.19c-19.27,2.18-18.36-7.09-18.36-7.09v-37.14c0-2.78,5.64-7.58,14.73-7.21,16.18.72,16.18,19.81,16.18,19.81,0,0,3.82,29.45-12.55,31.63Z"/>
    <path class="st2" d="M511.3,117.05v75.63s2.55,7.27,8.91,7.45c6.36.18,18.54,0,18.54,0,0,0,6.18,1.27,6.18-6.36v-61.63s8.18-8.91,25.45-7.27c6.73.36,7.45-2.36,8.18-7.82.73-5.45,3.09-17.82-16.36-17.64-19.45.18-36.33.41-50.91,17.64Z"/>
    <path class="st2" d="M659.84,174.13c-8.55,5.09-36.72,10.18-45.82-11.27,0,0,46.36-4.18,51.64-5.45,5.27-1.28,17.64-10.01,9.81-32.37-7.81-22.36-31.45-29.27-55.09-25.64-18.9,3.09-38.36,20.19-38.72,51.82-.36,31.63,18.73,47.81,48.91,51.81,22.73,2.54,43.46-6.55,43.81-18.18.37-11.64-6-15.82-14.54-10.73ZM627.47,123.95c11.46-1.82,16.91,3.46,20.73,13.64l-35.28,2.72s1.09-14.54,14.55-16.36Z"/>
    <path class="st2" d="M683.35,108.81l21.09,82.42s2.91,11.39,23.76,10.18c14.54-1.21,17.45-2.42,21.09-18.67,3.64-16.24,8.24-38.06,8.24-38.06l11.15,43.39s3.39,13.27,23.03,13.42c14.06.15,21.09-3.73,23.27-13.67,2.18-9.94,16.97-74.42,16.97-74.42,0,0-1.7-13.94-15.51-14-13.82-.06-16.48,5.52-18.18,18.61-1.7,13.09-8.48,52.12-8.48,52.12l-10.67-49.69s-3.15-15.51-19.64-15.51-20.12,9.45-23.27,22.3c-3.15,12.85-9.7,42.42-9.7,42.42l-8-52.84s-.73-18.06-17.45-17.39c-11.15,1.15-15.76,1.4-17.7,9.4Z"/>
    <path class="st2" d="M992.17,99.39s-34.66-1.49-40.48,29.53c-.48,14.3,6.3,25.7,30.3,31.27,23.27,5.58,15.51,4.61,15.51,4.61,0,0,13.33,5.82-.24,12.12-8.48,3.64-24.73-.97-30.79-4.12-6.06-3.15-8.24-2.67-10.42-.24-2.18,2.42-14.06,26.37,22.54,28.94,33.21,2.57,52.84-4.94,57.21-24.34,4.36-19.39-5.82-28.6-27.63-36.85-21.33-4.85-24.48-6.3-22.3-11.88,2.18-5.58,15.76-6.06,22.79-4.61,7.03,1.45,16.24,8.48,20.36.97,4.12-7.51,7.76-27.07-36.85-25.41Z"/>
    <path class="st2" d="M890.02,99.3s-52.74-1.15-51.05,55.57c1.45,43.88,39.03,48.68,55.75,47.13,16.73-1.56,46.3-8.83,48.49-55.37-.97-26.42-22.51-48.84-53.19-47.32ZM890.12,176.44c-10.92-.24-14.3-7.27-17.21-23.51-2.67-26.18,17.21-28.13,17.21-28.13,13.33.98,16.49,8.49,17.21,27.64.72,19.16-8.97,24.25-17.21,24Z"/>
  </g>
</svg>