<?xml version="1.0" encoding="UTF-8"?>
<svg id="Layer_1" xmlns="http://www.w3.org/2000/svg" version="1.1" viewBox="0 0 2000 2000">
  <!-- Generator: Adobe Illustrator 30.0.0, SVG Export Plug-In . SVG Version: 2.1.1 Build 123)  -->
  <g>
    <path d="M292.22,1395.8c-24.96-3.5-56.42-5.49-76.39,10l-4.01-78.38s-1.48-27.96-34.93-27.96-49.92,3.47-56.42,14.96v298.56s16.98,62.89,139.28,65.38c84.37,0,132.81-46.42,140.29-125.3,6.5-73.9-21.46-145.27-107.82-157.26ZM267.91,1606.15c-52.92,5.99-50.42-19.47-50.42-19.47v-102c0-7.65,15.49-20.81,40.45-19.81,44.43,1.99,44.43,54.4,44.43,54.4,0,0,10.48,80.87-34.46,86.87Z"/>
    <path d="M436.49,1443.73v207.68s6.99,19.97,24.46,20.47c17.47.5,50.92,0,50.92,0,0,0,16.97,3.49,16.97-17.47v-169.24s22.47-24.46,69.89-19.97c18.47,1,20.47-6.49,22.47-21.47,2-14.98,8.49-48.93-44.93-48.43-53.42.5-99.76,1.13-139.79,48.43Z"/>
    <path d="M844.39,1600.49c-23.47,13.98-100.85,27.96-125.83-30.95,0,0,127.32-11.49,141.8-14.96,14.48-3.5,48.43-27.48,26.95-88.88-21.46-61.4-86.36-80.37-151.27-70.4-51.91,8.49-105.33,55.44-106.34,142.31-.98,86.87,51.43,131.3,134.29,142.28,62.41,6.98,119.33-17.98,120.32-49.92,1.01-31.96-16.47-43.45-39.92-29.47ZM755.5,1462.69c31.46-4.99,46.45,9.5,56.92,37.45l-96.87,7.48s3-39.92,39.95-44.93Z"/>
    <path d="M908.94,1421.1l57.91,226.32s7.99,31.29,65.23,27.96c39.94-3.33,47.93-6.66,57.91-51.26,9.98-44.6,22.63-104.51,22.63-104.51l30.62,119.15s9.32,36.44,63.24,36.86c38.61.42,57.91-10.23,63.9-37.52,5.99-27.29,46.6-204.36,46.6-204.36,0,0-4.66-38.29-42.6-38.45-37.94-.16-45.26,15.15-49.92,51.09-4.66,35.95-23.3,143.12-23.3,143.12l-29.29-136.46s-8.65-42.6-53.92-42.6-55.25,25.96-63.9,61.24c-8.65,35.28-26.63,116.49-26.63,116.49l-21.97-145.11s-2-49.6-47.93-47.77c-30.62,3.17-43.27,3.83-48.59,25.8Z"/>
    <path d="M1756.98,1395.25s-95.19-4.11-111.16,81.1c-1.33,39.27,17.31,70.56,83.21,85.87,63.9,15.31,42.6,12.65,42.6,12.65,0,0,36.61,15.98-.67,33.28-23.3,9.98-67.9-2.66-84.54-11.32-16.64-8.65-22.63-7.32-28.62-.67-5.99,6.66-38.61,72.41,61.91,79.47,91.19,7.06,145.11-13.57,157.09-66.82,11.98-53.25-15.98-78.55-75.88-101.18-58.58-13.31-67.23-17.31-61.24-32.62,5.99-15.31,43.27-16.64,62.57-12.65,19.3,3.99,44.6,23.3,55.92,2.66,11.32-20.64,21.3-74.33-101.18-69.78Z"/>
    <path d="M1476.47,1394.99s-144.83-3.17-140.18,152.59c3.98,120.48,107.18,133.68,153.09,129.42,45.94-4.29,127.15-24.26,133.15-152.05-2.66-72.55-61.82-134.13-146.06-129.95ZM1476.75,1606.82c-29.97-.67-39.27-19.97-47.26-64.57-7.34-71.88,47.26-77.23,47.26-77.23,36.61,2.69,45.27,23.31,47.26,75.89,1.99,52.61-24.62,66.59-47.26,65.91Z"/>
  </g>
  <g>
    <path d="M1065.89,805.58c-1.61-7.59-1.85-13.69-4.06-22.16-8.32-32.06-21.82-51.46-45-73.98-21.82-18.09-37.37-25.23-63.98-33.45-34.44-5.91-53.63-4.89-86.83,7.02-61.1,29.47-85.99,66.05-91.07,133.19,1,18.52,2.13,31.98,8.66,49.64,23.37,63.23,81.58,99.11,148.43,94.75,4.59-.29,9.16-.76,13.71-1.42,57.03-7.06,103.78-52.54,116.82-107.66,3.81-16.12,3.66-29.62,3.32-45.94ZM932.13,930.99c-62.82,6.19-118.74-39.78-124.82-102.62-6.08-62.83,39.97-118.68,102.82-124.65,62.69-5.97,118.38,39.97,124.45,102.65,6.07,62.68-39.77,118.45-102.45,124.62Z"/>
    <path d="M1415.16,500.92c206.45-66.15,304.18,127.58,219.3,303.44-36.63,75.88-123.56,152.29-200.45,184.19-34.49,14.31-103.01,25.1-125.16,40.97-30.2,21.64-69.4,101.24-110.09,124.45,37.64,8.75,83.44,4.44,118.11,25.4,46.6,28.17-22.75,46.8-47.34,53.37-142.09,37.96-599.45,47.97-728.07-14.63-78.42-38.17,85.08-63.36,112.24-64.13-84.83-71.47-150.85-165.98-183.84-272.9-34.74-112.62-55.53-299.59-39.82-415.47,7.28-53.69,41.45-77.46,89.07-95.23,178.16-66.49,679.72-75.66,847.07,15.25,47.87,26,52.69,63.34,48.98,115.31ZM1365.04,466.98c33.28-30.51-62.17-61.15-84.42-67.94-174.7-53.3-507.74-53.49-684.6-7.89-24.15,6.23-88.63,25.08-105.72,38.52-15.34,12.06-23.45,31.4-1.78,40.24,38.8,15.84,94.49-17.18,136.13-26.1,172.24-36.9,361.54-44.73,535.49-12.46,48.07,8.92,117.57,40.61,155.53,45.39,13.97,1.76,38.97-.23,49.37-9.77ZM846.05,452.96l-123.1,9.02-85.2,22.87,208.29-31.88ZM1190.66,477c-60.61-11.91-121.88-27.46-184.24-24.04l158.44,29.83,25.8-5.79ZM709.84,565.13c-83.44-10.84-164.95-26.07-240.34-64.18-10.11,224.25,39.91,556.25,278.33,647.06,73.01,27.81,175.75,40.77,253.57,32.99,321.15-32.09,385.79-417.66,373.56-680.05-69,45.22-160.43,50.78-240.35,64.18-3.64,2.92,50.54,50.85,52.54,67.9,3.28,28.01-33.21,52.18-16.65,84.4,11.27,21.93,60.43,18.5,74.53,45.71,13.41,25.88,14.6,105.78-11.42,121.23-17.71,10.52-39.88,1.42-58.08,22-36.99,41.84,10.86,55.26,7.41,87.05-2.2,20.3-64.73,83.02-84.8,84.84-23.5,2.13-43.55-32.68-73.45-18.79-33.6,15.61-21.47,74.45-62.58,82.29-16.26,3.1-78.32,2.73-92.01-3.81-27.14-12.96-19.86-77.27-61.98-83.08-29.88-4.12-34.72,41.03-81.84,10.51-9.58-6.21-61.26-57.72-63.38-65.45-8.81-32.13,30.11-46.96,14.06-76.85-28.44-52.95-84.37-7.44-79.62-105.91,4.78-99.14,62.38-61.79,82.69-110.29,8.81-21.03-11.83-27.02-16.45-43.66-12.35-44.48,26.24-64.36,46.25-98.07ZM1343.02,973.62c158.62-13.52,372.05-263.45,240.75-404.93-52.49-56.56-172.57-72.68-168.59,28.4,192.14-69.26,193.15,133.53,84.36,240.65-48.81,48.05-143.54,63.66-156.52,135.88ZM1144.52,863.46c19.9-22.56,72.65,16.19,62.72-62.43-5.41-42.88-37.84-22.15-60.43-43.88-3.77-3.63-23.43-41.97-24.9-47.92-10.3-41.69,57.47-72.06-23.25-118.22-35.04,16.47-30.7,37.96-73.97,23.91-59.97-19.48-59.53-76.73-86.45-81.99-74.65-14.6-42.22,70.05-123.96,84.98-40.65,7.42-50.87-26.1-72.14-17.18-56.93,23.9-16.31,68.23-15.92,96.32.72,51.42-34.55,76.68-80.96,80.97,3.26,13.7-3.33,70.99.8,75.16,1.73,1.74,31.23-.96,47.54,12.58,7.39,6.13,28.82,47.89,30.78,57.84,6.71,34.13-25.07,59.35-10.7,82.1,1.39,2.2,38.84,31.02,41.39,31.49,13.12,2.43,20.71-24.03,46.76-24.14,58.96-.23,76.76,41.31,89.62,89.16l66.77-.4c-.16-50.03,2.89-67.16,51.78-80.4,60.51-16.38,90.29,34.31,130.42-27.61-9.2-22.02-24.46-37.51-21.82-63.43.47-4.61,23.54-64.22,25.91-66.91ZM1383.13,861.49c79.01-35.19,162.22-107.66,143.96-204.11-6.21-32.81-36.75-40.24-65.98-34.49-67.36,13.26-39.33,58.12-46.84,105.56-3.3,20.87-35.46,127.74-31.14,133.04Z"/>
  </g>
</svg>