<?xml version="1.0" encoding="UTF-8"?>
<svg id="Layer_1" xmlns="http://www.w3.org/2000/svg" version="1.1" viewBox="0 0 2000 2000">
  <!-- Generator: Adobe Illustrator 30.0.0, SVG Export Plug-In . SVG Version: 2.1.1 Build 123)  -->
  <path d="M1097.45,1018.99c-2.1-9.92-2.42-17.89-5.3-28.96-10.88-41.9-28.52-67.25-58.81-96.67-28.52-23.64-48.84-32.97-83.61-43.72-45.01-7.72-70.08-6.39-113.46,9.18-79.85,38.51-112.38,86.31-119.01,174.06,1.31,24.2,2.78,41.79,11.31,64.88,30.53,82.63,106.61,129.52,193.97,123.82,5.99-.37,11.97-1,17.91-1.86,74.53-9.22,135.62-68.65,152.66-140.69,4.98-21.06,4.78-38.71,4.34-60.04ZM922.65,1182.88c-82.09,8.09-155.17-51.99-163.12-134.1-7.95-82.11,52.24-155.09,134.37-162.9,81.93-7.8,154.7,52.23,162.63,134.14,7.93,81.92-51.97,154.79-133.88,162.86Z"/>
  <path d="M1553.88,620.86c269.79-86.45,397.51,166.73,286.58,396.54-47.86,99.16-161.47,199.01-261.95,240.7-45.07,18.7-134.62,32.81-163.56,53.55-39.46,28.28-90.7,132.3-143.87,162.63,49.19,11.43,109.05,5.8,154.35,33.19,60.89,36.81-29.73,61.16-61.86,69.74-185.69,49.6-783.37,62.69-951.45-19.12-102.48-49.88,111.18-82.79,146.67-83.81-110.85-93.4-197.14-216.91-240.25-356.63-45.4-147.18-72.57-391.51-52.03-542.95,9.51-70.17,54.16-101.23,116.4-124.45,232.82-86.89,888.27-98.88,1106.96,19.93,62.56,33.98,68.86,82.77,64.01,150.68ZM1488.38,576.51c43.49-39.88-81.25-79.91-110.32-88.78-228.3-69.66-663.53-69.9-894.65-10.31-31.56,8.14-115.82,32.78-138.16,50.34-20.05,15.76-30.64,41.03-2.32,52.59,50.7,20.7,123.48-22.45,177.9-34.11,225.09-48.22,472.47-58.45,699.79-16.28,62.82,11.66,153.64,53.07,203.24,59.32,18.26,2.3,50.93-.3,64.52-12.77ZM810.15,558.18l-160.87,11.78-111.34,29.88,272.2-41.67ZM1260.5,589.6c-79.21-15.56-159.27-35.88-240.77-31.42l207.05,38.98,33.72-7.56ZM632.15,704.77c-109.04-14.16-215.56-34.07-314.09-83.87-13.21,293.05,52.16,726.91,363.73,845.59,95.42,36.34,229.67,53.27,331.37,43.11,419.68-41.94,504.16-545.81,488.18-888.71-90.17,59.09-209.66,66.36-314.09,83.87-4.75,3.82,66.05,66.45,68.66,88.73,4.29,36.61-43.4,68.19-21.76,110.29,14.73,28.66,78.98,24.18,97.4,59.73,17.53,33.82,19.07,138.24-14.92,158.43-23.15,13.75-52.12,1.85-75.89,28.74-48.34,54.68,14.19,72.22,9.68,113.76-2.88,26.53-84.59,108.49-110.82,110.87-30.71,2.79-56.91-42.7-95.98-24.55-43.91,20.4-28.06,97.3-81.78,107.54-21.24,4.05-102.35,3.57-120.24-4.98-35.46-16.94-25.95-100.98-80.99-108.57-39.05-5.39-45.37,53.62-106.95,13.73-12.52-8.11-80.05-75.43-82.82-85.53-11.52-41.99,39.34-61.37,18.37-100.42-37.17-69.2-110.25-9.72-104.05-138.4,6.25-129.56,81.52-80.75,108.06-144.13,11.51-27.48-15.46-35.31-21.5-57.06-16.14-58.12,34.29-84.11,60.44-128.16ZM1459.61,1238.59c207.29-17.66,486.21-344.28,314.62-529.17-68.59-73.91-225.51-94.98-220.31,37.11,251.1-90.51,252.41,174.5,110.24,314.48-63.78,62.8-187.59,83.2-204.55,177.57ZM1200.2,1094.63c26-29.48,94.94,21.15,81.97-81.59-7.07-56.03-49.45-28.95-78.97-57.34-4.93-4.74-30.62-54.84-32.54-62.63-13.46-54.48,75.1-94.18-30.38-154.5-45.8,21.52-40.12,49.61-96.67,31.24-78.37-25.45-77.8-100.27-112.98-107.15-97.56-19.08-55.17,91.55-161.99,111.05-53.12,9.7-66.48-34.11-94.27-22.45-74.4,31.24-21.32,89.16-20.8,125.87.95,67.2-45.15,100.21-105.8,105.81,4.27,17.91-4.35,92.77,1.05,98.21,2.26,2.28,40.81-1.25,62.12,16.44,9.65,8.01,37.67,62.59,40.22,75.58,8.77,44.61-32.76,77.56-13.98,107.29,1.81,2.87,50.75,40.54,54.09,41.16,17.15,3.17,27.07-31.41,61.1-31.54,77.05-.3,100.31,53.99,117.12,116.52l87.25-.53c-.21-65.38,3.77-87.76,67.67-105.06,79.07-21.41,117.99,44.84,170.43-36.08-12.03-28.78-31.96-49.01-28.51-82.89.61-6.03,30.76-83.92,33.86-87.44ZM1512.02,1092.05c103.25-45.99,211.99-140.69,188.13-266.74-8.12-42.88-48.03-52.59-86.22-45.07-88.02,17.32-51.4,75.96-61.21,137.95-4.32,27.27-46.34,166.94-40.69,173.85Z"/>
</svg>