<?xml version="1.0" encoding="UTF-8"?>
<svg id="Layer_1" data-name="Layer 1" xmlns="http://www.w3.org/2000/svg" xmlns:xlink="http://www.w3.org/1999/xlink" viewBox="0 0 3000 1678.38">
  <defs>
    <style>
      .cls-1 {
        fill: #381f14;
      }

      .cls-2 {
        fill: url(#linear-gradient-15);
      }

      .cls-3 {
        fill: url(#linear-gradient-13);
      }

      .cls-4 {
        fill: url(#linear-gradient-2);
      }

      .cls-5 {
        fill: #fbfcf9;
      }

      .cls-6 {
        fill: url(#linear-gradient-10);
      }

      .cls-7 {
        fill: url(#linear-gradient-12);
      }

      .cls-8 {
        fill: #7c4c2c;
      }

      .cls-9 {
        fill: #351e12;
      }

      .cls-10 {
        fill: #fff;
      }

      .cls-11 {
        fill: url(#linear-gradient-4);
      }

      .cls-12 {
        fill: #d5a171;
      }

      .cls-13 {
        fill: url(#linear-gradient-3);
      }

      .cls-14 {
        fill: url(#linear-gradient-5);
      }

      .cls-15 {
        fill: #f1f4f3;
      }

      .cls-16 {
        fill: #714d30;
      }

      .cls-17 {
        fill: #a97248;
      }

      .cls-18 {
        fill: url(#linear-gradient-8);
      }

      .cls-19 {
        fill: #bcbab6;
      }

      .cls-20 {
        fill: url(#linear-gradient-14);
      }

      .cls-21 {
        fill: url(#linear-gradient-17);
      }

      .cls-22 {
        fill: url(#linear-gradient-7);
      }

      .cls-23 {
        fill: url(#linear-gradient-9);
      }

      .cls-24 {
        fill: url(#linear-gradient-11);
      }

      .cls-25 {
        fill: url(#linear-gradient-6);
      }

      .cls-26 {
        fill: #9c6e46;
      }

      .cls-27 {
        fill: url(#linear-gradient-16);
      }

      .cls-28 {
        fill: url(#linear-gradient);
      }

      .cls-29 {
        fill: url(#linear-gradient-18);
      }
    </style>
    <linearGradient id="linear-gradient" x1="171.62" y1="1313.46" x2="354.95" y2="1313.46" gradientUnits="userSpaceOnUse">
      <stop offset="0" stop-color="#ae7b50"/>
      <stop offset=".47" stop-color="#b48658"/>
      <stop offset="1" stop-color="#9a6733"/>
    </linearGradient>
    <linearGradient id="linear-gradient-2" x1="169.12" y1="1246" x2="332.38" y2="1340.26" gradientUnits="userSpaceOnUse">
      <stop offset="0" stop-color="#bb8556"/>
      <stop offset=".22" stop-color="#c3905f"/>
      <stop offset=".49" stop-color="#bd885b"/>
      <stop offset=".74" stop-color="#a06b3d"/>
      <stop offset="1" stop-color="#a2683c"/>
    </linearGradient>
    <linearGradient id="linear-gradient-3" x1="419.78" y1="1247.72" x2="363.83" y2="1344.62" gradientUnits="userSpaceOnUse">
      <stop offset="0" stop-color="#e6e5e6"/>
      <stop offset="1" stop-color="#b0b0ab"/>
    </linearGradient>
    <linearGradient id="linear-gradient-4" x1="406.85" y1="1322.07" x2="369.93" y2="1258.13" gradientUnits="userSpaceOnUse">
      <stop offset="0" stop-color="#81807e"/>
      <stop offset="1" stop-color="#bbbbbc"/>
    </linearGradient>
    <linearGradient id="linear-gradient-5" x1="214.09" y1="1273.03" x2="328.54" y2="1339.1" gradientUnits="userSpaceOnUse">
      <stop offset="0" stop-color="#fff"/>
      <stop offset="1" stop-color="#8b8d87"/>
    </linearGradient>
    <linearGradient id="linear-gradient-6" x1="236.12" y1="1285.49" x2="307.49" y2="1326.7" gradientUnits="userSpaceOnUse">
      <stop offset=".26" stop-color="#8c8c88"/>
      <stop offset="1" stop-color="#f0f1ef"/>
    </linearGradient>
    <linearGradient id="linear-gradient-7" x1="467.92" y1="422.82" x2="920.94" y2="422.82" xlink:href="#linear-gradient"/>
    <linearGradient id="linear-gradient-8" x1="461.72" y1="256.1" x2="865.18" y2="489.03" xlink:href="#linear-gradient-2"/>
    <linearGradient id="linear-gradient-9" x1="1081.15" y1="260.35" x2="942.9" y2="499.82" xlink:href="#linear-gradient-3"/>
    <linearGradient id="linear-gradient-10" x1="1049.2" y1="444.09" x2="957.97" y2="286.08" xlink:href="#linear-gradient-4"/>
    <linearGradient id="linear-gradient-11" x1="572.87" y1="322.89" x2="855.68" y2="486.17" xlink:href="#linear-gradient-5"/>
    <linearGradient id="linear-gradient-12" x1="627.29" y1="353.7" x2="803.67" y2="455.53" xlink:href="#linear-gradient-6"/>
    <linearGradient id="linear-gradient-13" x1="1191.94" y1="1316.5" x2="1428.37" y2="1316.5" xlink:href="#linear-gradient"/>
    <linearGradient id="linear-gradient-14" x1="1188.71" y1="1229.49" x2="1399.27" y2="1351.06" xlink:href="#linear-gradient-2"/>
    <linearGradient id="linear-gradient-15" x1="1511.98" y1="1231.71" x2="1439.83" y2="1356.68" xlink:href="#linear-gradient-3"/>
    <linearGradient id="linear-gradient-16" x1="1495.31" y1="1327.6" x2="1447.7" y2="1245.14" xlink:href="#linear-gradient-4"/>
    <linearGradient id="linear-gradient-17" x1="1246.72" y1="1264.35" x2="1394.31" y2="1349.56" xlink:href="#linear-gradient-5"/>
    <linearGradient id="linear-gradient-18" x1="1275.12" y1="1280.42" x2="1367.17" y2="1333.57" xlink:href="#linear-gradient-6"/>
  </defs>
  <polygon class="cls-1" points="1500 586.69 1500 1042.22 3000 1042.22 3000 3.96 2259.31 3.96 2259.31 593.11 1500 586.69"/>
  <g>
    <g>
      <path class="cls-10" d="M2175.98,788.46c-9.62-1.35-21.74-2.12-29.44,3.85l-1.54-30.2s-.57-10.77-13.46-10.77-19.23,1.34-21.74,5.76v115.04s6.54,24.23,53.67,25.19c32.51,0,51.17-17.89,54.06-48.28,2.5-28.47-8.27-55.98-41.55-60.6ZM2166.61,869.51c-20.39,2.31-19.43-7.5-19.43-7.5v-39.3c0-2.95,5.97-8.02,15.59-7.63,17.12.77,17.12,20.96,17.12,20.96,0,0,4.04,31.16-13.28,33.47Z"/>
      <path class="cls-10" d="M2231.57,806.93v80.03s2.69,7.69,9.43,7.89c6.73.19,19.62,0,19.62,0,0,0,6.54,1.35,6.54-6.73v-65.21s8.66-9.43,26.93-7.69c7.12.38,7.89-2.5,8.66-8.27.77-5.77,3.27-18.85-17.31-18.66-20.58.19-38.44.44-53.86,18.66Z"/>
      <path class="cls-10" d="M2388.74,867.33c-9.05,5.39-38.86,10.77-48.49-11.93,0,0,49.06-4.43,54.64-5.76,5.58-1.35,18.66-10.59,10.38-34.25-8.27-23.66-33.28-30.97-58.29-27.13-20,3.27-40.59,21.36-40.97,54.83-.38,33.47,19.82,50.59,51.75,54.82,24.05,2.69,45.98-6.93,46.36-19.23.39-12.32-6.35-16.74-15.38-11.36ZM2354.49,814.24c12.12-1.92,17.9,3.66,21.93,14.43l-37.33,2.88s1.16-15.38,15.39-17.31Z"/>
      <path class="cls-10" d="M2413.61,798.21l22.31,87.21s3.08,12.06,25.14,10.77c15.39-1.28,18.47-2.56,22.31-19.75,3.85-17.18,8.72-40.27,8.72-40.27l11.8,45.91s3.59,14.04,24.37,14.2c14.88.16,22.31-3.94,24.62-14.46,2.31-10.52,17.95-78.74,17.95-78.74,0,0-1.8-14.75-16.42-14.81s-17.44,5.84-19.24,19.69c-1.8,13.85-8.98,55.15-8.98,55.15l-11.29-52.58s-3.33-16.42-20.78-16.42-21.29,10-24.62,23.6c-3.33,13.59-10.26,44.89-10.26,44.89l-8.46-55.92s-.77-19.11-18.47-18.41c-11.8,1.22-16.67,1.48-18.72,9.94Z"/>
      <path class="cls-10" d="M2740.39,788.25s-36.68-1.58-42.83,31.25c-.51,15.13,6.67,27.19,32.06,33.09,24.62,5.9,16.42,4.87,16.42,4.87,0,0,14.11,6.16-.26,12.82-8.98,3.85-26.16-1.03-32.57-4.36s-8.72-2.82-11.03-.26c-2.31,2.56-14.88,27.9,23.85,30.62,35.14,2.72,55.92-5.23,60.53-25.75,4.62-20.52-6.16-30.27-29.24-38.99-22.57-5.13-25.91-6.67-23.6-12.57,2.31-5.9,16.67-6.41,24.11-4.87,7.44,1.54,17.18,8.98,21.55,1.03,4.36-7.95,8.21-28.64-38.99-26.89Z"/>
      <path class="cls-10" d="M2632.3,788.15s-55.8-1.22-54.01,58.8c1.53,46.43,41.3,51.51,58.99,49.87,17.7-1.65,48.99-9.35,51.3-58.59-1.03-27.96-23.82-51.68-56.28-50.07ZM2632.4,869.77c-11.55-.26-15.13-7.7-18.21-24.88-2.83-27.7,18.21-29.76,18.21-29.76,14.11,1.04,17.44,8.98,18.21,29.24.77,20.27-9.49,25.66-18.21,25.4Z"/>
    </g>
    <g>
      <path class="cls-10" d="M1910.02,820.06c-.43-2.04-.5-3.69-1.09-5.97-2.24-8.63-5.88-13.86-12.12-19.92-5.88-4.87-10.06-6.79-17.23-9.01-9.27-1.59-14.44-1.32-23.38,1.89-16.45,7.94-23.16,17.78-24.52,35.87.27,4.99.57,8.61,2.33,13.37,6.29,17.03,21.97,26.69,39.97,25.51,1.24-.08,2.47-.21,3.69-.38,15.36-1.9,27.94-14.15,31.46-28.99,1.03-4.34.99-7.98.89-12.37ZM1874,853.83c-16.92,1.67-31.97-10.71-33.61-27.63-1.64-16.92,10.76-31.96,27.69-33.57,16.88-1.61,31.88,10.76,33.51,27.64,1.63,16.88-10.71,31.89-27.59,33.56Z"/>
      <path class="cls-10" d="M2004.07,738.02c55.59-17.81,81.91,34.35,59.05,81.71-9.86,20.43-33.27,41.01-53.97,49.6-9.29,3.85-27.74,6.76-33.7,11.03-8.13,5.83-18.69,27.26-29.64,33.51,10.13,2.36,22.47,1.2,31.8,6.84,12.55,7.58-6.13,12.6-12.75,14.37-38.26,10.22-161.41,12.92-196.05-3.94-21.12-10.28,22.91-17.06,30.22-17.27-22.84-19.25-40.62-44.69-49.5-73.48-9.36-30.33-14.95-80.67-10.72-111.87,1.96-14.46,11.16-20.86,23.98-25.64,47.97-17.9,183.03-20.37,228.09,4.11,12.89,7,14.19,17.06,13.19,31.05ZM1990.57,728.88c8.96-8.22-16.74-16.47-22.73-18.29-47.04-14.35-136.72-14.4-184.34-2.12-6.5,1.68-23.86,6.75-28.47,10.37-4.13,3.25-6.31,8.45-.48,10.84,10.45,4.26,25.44-4.63,36.66-7.03,46.38-9.93,97.35-12.04,144.19-3.35,12.94,2.4,31.66,10.94,41.88,12.22,3.76.47,10.49-.06,13.29-2.63ZM1850.82,725.11l-33.15,2.43-22.94,6.16,56.09-8.59ZM1943.62,731.58c-16.32-3.21-32.82-7.39-49.61-6.47l42.66,8.03,6.95-1.56ZM1814.15,755.31c-22.47-2.92-44.42-7.02-64.72-17.28-2.72,60.38,10.75,149.78,74.95,174.23,19.66,7.49,47.32,10.98,68.28,8.88,86.47-8.64,103.88-112.46,100.59-183.12-18.58,12.18-43.2,13.67-64.72,17.28-.98.79,13.61,13.69,14.15,18.28.88,7.54-8.94,14.05-4.48,22.73,3.03,5.9,16.27,4.98,20.07,12.31,3.61,6.97,3.93,28.48-3.07,32.64-4.77,2.83-10.74.38-15.64,5.92-9.96,11.27,2.92,14.88,1.99,23.44-.59,5.47-17.43,22.35-22.83,22.84-6.33.57-11.73-8.8-19.78-5.06-9.05,4.2-5.78,20.05-16.85,22.16-4.38.83-21.09.74-24.78-1.03-7.31-3.49-5.35-20.81-16.69-22.37-8.05-1.11-9.35,11.05-22.04,2.83-2.58-1.67-16.49-15.54-17.07-17.62-2.37-8.65,8.11-12.65,3.78-20.69-7.66-14.26-22.72-2-21.44-28.52,1.29-26.7,16.8-16.64,22.27-29.7,2.37-5.66-3.19-7.28-4.43-11.76-3.33-11.98,7.06-17.33,12.45-26.41ZM1984.64,865.31c42.71-3.64,100.18-70.94,64.83-109.03-14.13-15.23-46.47-19.57-45.39,7.65,51.74-18.65,52.01,35.96,22.71,64.8-13.14,12.94-38.65,17.14-42.15,36.59ZM1931.19,835.64c5.36-6.07,19.56,4.36,16.89-16.81-1.46-11.55-10.19-5.97-16.27-11.81-1.02-.98-6.31-11.3-6.7-12.9-2.77-11.23,15.47-19.4-6.26-31.83-9.44,4.43-8.27,10.22-19.92,6.44-16.15-5.24-16.03-20.66-23.28-22.08-20.1-3.93-11.37,18.86-33.38,22.88-10.95,2-13.7-7.03-19.42-4.63-15.33,6.44-4.39,18.37-4.29,25.93.19,13.85-9.3,20.65-21.8,21.8.88,3.69-.9,19.12.22,20.24.47.47,8.41-.26,12.8,3.39,1.99,1.65,7.76,12.9,8.29,15.57,1.81,9.19-6.75,15.98-2.88,22.11.37.59,10.46,8.35,11.15,8.48,3.53.65,5.58-6.47,12.59-6.5,15.88-.06,20.67,11.12,24.13,24.01l17.98-.11c-.04-13.47.78-18.08,13.94-21.65,16.29-4.41,24.31,9.24,35.12-7.43-2.48-5.93-6.59-10.1-5.87-17.08.13-1.24,6.34-17.29,6.98-18.02ZM1995.44,835.11c21.27-9.48,43.68-28.99,38.76-54.96-1.67-8.83-9.9-10.84-17.77-9.29-18.14,3.57-10.59,15.65-12.61,28.43-.89,5.62-9.55,34.4-8.38,35.82Z"/>
    </g>
  </g>
  <g>
    <g>
      <path d="M2175.98,1274.7c-9.62-1.35-21.74-2.12-29.44,3.85l-1.54-30.2s-.57-10.77-13.46-10.77-19.23,1.34-21.74,5.76v115.04s6.54,24.23,53.67,25.19c32.51,0,51.17-17.89,54.06-48.28,2.5-28.47-8.27-55.98-41.55-60.6ZM2166.61,1355.75c-20.39,2.31-19.43-7.5-19.43-7.5v-39.3c0-2.95,5.97-8.02,15.59-7.63,17.12.77,17.12,20.96,17.12,20.96,0,0,4.04,31.16-13.28,33.47Z"/>
      <path d="M2231.57,1293.17v80.03s2.69,7.69,9.43,7.89c6.73.19,19.62,0,19.62,0,0,0,6.54,1.35,6.54-6.73v-65.21s8.66-9.43,26.93-7.69c7.12.38,7.89-2.5,8.66-8.27s3.27-18.85-17.31-18.66c-20.58.19-38.44.44-53.86,18.66Z"/>
      <path d="M2388.74,1353.57c-9.05,5.39-38.86,10.77-48.49-11.93,0,0,49.06-4.43,54.64-5.76,5.58-1.35,18.66-10.59,10.38-34.25-8.27-23.66-33.28-30.97-58.29-27.13-20,3.27-40.59,21.36-40.97,54.83-.38,33.47,19.82,50.59,51.75,54.82,24.05,2.69,45.98-6.93,46.36-19.23.39-12.32-6.35-16.74-15.38-11.36ZM2354.49,1300.48c12.12-1.92,17.9,3.66,21.93,14.43l-37.33,2.88s1.16-15.38,15.39-17.31Z"/>
      <path d="M2413.61,1284.45l22.31,87.21s3.08,12.06,25.14,10.77c15.39-1.28,18.47-2.56,22.31-19.75,3.85-17.18,8.72-40.27,8.72-40.27l11.8,45.91s3.59,14.04,24.37,14.2c14.88.16,22.31-3.94,24.62-14.46,2.31-10.52,17.95-78.74,17.95-78.74,0,0-1.8-14.75-16.42-14.81-14.62-.06-17.44,5.84-19.24,19.69-1.8,13.85-8.98,55.15-8.98,55.15l-11.29-52.58s-3.33-16.42-20.78-16.42-21.29,10-24.62,23.6c-3.33,13.59-10.26,44.89-10.26,44.89l-8.46-55.92s-.77-19.11-18.47-18.41c-11.8,1.22-16.67,1.48-18.72,9.94Z"/>
      <path d="M2740.39,1274.49s-36.68-1.58-42.83,31.25c-.51,15.13,6.67,27.19,32.06,33.09,24.62,5.9,16.42,4.87,16.42,4.87,0,0,14.11,6.16-.26,12.82-8.98,3.85-26.16-1.03-32.57-4.36-6.41-3.33-8.72-2.82-11.03-.26-2.31,2.56-14.88,27.9,23.85,30.62,35.14,2.72,55.92-5.23,60.53-25.75,4.62-20.52-6.16-30.27-29.24-38.99-22.57-5.13-25.91-6.67-23.6-12.57s16.67-6.41,24.11-4.87c7.44,1.54,17.18,8.98,21.55,1.03,4.36-7.95,8.21-28.64-38.99-26.89Z"/>
      <path d="M2632.3,1274.39s-55.8-1.22-54.01,58.79c1.53,46.43,41.3,51.51,58.99,49.87,17.7-1.65,48.99-9.35,51.3-58.59-1.03-27.96-23.82-51.68-56.28-50.07ZM2632.4,1356.01c-11.55-.26-15.13-7.7-18.21-24.88-2.83-27.7,18.21-29.76,18.21-29.76,14.11,1.04,17.44,8.98,18.21,29.24.77,20.27-9.49,25.66-18.21,25.4Z"/>
    </g>
    <g>
      <path d="M1910.02,1306.3c-.43-2.04-.5-3.69-1.09-5.97-2.24-8.63-5.88-13.86-12.12-19.92-5.88-4.87-10.06-6.79-17.23-9.01-9.27-1.59-14.44-1.32-23.38,1.89-16.45,7.94-23.16,17.78-24.52,35.87.27,4.99.57,8.61,2.33,13.37,6.29,17.03,21.97,26.69,39.97,25.51,1.24-.08,2.47-.21,3.69-.38,15.36-1.9,27.94-14.15,31.46-28.99,1.03-4.34.99-7.98.89-12.37ZM1874,1340.07c-16.92,1.67-31.97-10.71-33.61-27.63-1.64-16.92,10.76-31.96,27.69-33.57,16.88-1.61,31.88,10.76,33.51,27.64,1.63,16.88-10.71,31.89-27.59,33.56Z"/>
      <path d="M2004.07,1224.26c55.59-17.81,81.91,34.35,59.05,81.71-9.86,20.43-33.27,41.01-53.97,49.6-9.29,3.85-27.74,6.76-33.7,11.03-8.13,5.83-18.69,27.26-29.64,33.51,10.13,2.36,22.47,1.2,31.8,6.84,12.55,7.58-6.13,12.6-12.75,14.37-38.26,10.22-161.41,12.92-196.05-3.94-21.12-10.28,22.91-17.06,30.22-17.27-22.84-19.25-40.62-44.69-49.5-73.48-9.36-30.33-14.95-80.67-10.72-111.87,1.96-14.46,11.16-20.86,23.98-25.64,47.97-17.9,183.03-20.37,228.09,4.11,12.89,7,14.19,17.06,13.19,31.05ZM1990.57,1215.12c8.96-8.22-16.74-16.47-22.73-18.29-47.04-14.35-136.72-14.4-184.34-2.12-6.5,1.68-23.86,6.75-28.47,10.37-4.13,3.25-6.31,8.45-.48,10.84,10.45,4.26,25.44-4.63,36.66-7.03,46.38-9.93,97.35-12.04,144.19-3.35,12.94,2.4,31.66,10.94,41.88,12.22,3.76.47,10.49-.06,13.29-2.63ZM1850.82,1211.35l-33.15,2.43-22.94,6.16,56.09-8.59ZM1943.62,1217.82c-16.32-3.21-32.82-7.39-49.61-6.47l42.66,8.03,6.95-1.56ZM1814.15,1241.55c-22.47-2.92-44.42-7.02-64.72-17.28-2.72,60.38,10.75,149.78,74.95,174.23,19.66,7.49,47.32,10.98,68.28,8.88,86.47-8.64,103.88-112.46,100.59-183.12-18.58,12.18-43.2,13.67-64.72,17.28-.98.79,13.61,13.69,14.15,18.28.88,7.54-8.94,14.05-4.48,22.73,3.03,5.9,16.27,4.98,20.07,12.31,3.61,6.97,3.93,28.48-3.07,32.64-4.77,2.83-10.74.38-15.64,5.92-9.96,11.27,2.92,14.88,1.99,23.44-.59,5.47-17.43,22.35-22.83,22.84-6.33.57-11.73-8.8-19.78-5.06-9.05,4.2-5.78,20.05-16.85,22.16-4.38.83-21.09.74-24.78-1.03-7.31-3.49-5.35-20.81-16.69-22.37-8.05-1.11-9.35,11.05-22.04,2.83-2.58-1.67-16.49-15.54-17.07-17.62-2.37-8.65,8.11-12.65,3.78-20.69-7.66-14.26-22.72-2-21.44-28.52,1.29-26.7,16.8-16.64,22.27-29.7,2.37-5.66-3.19-7.28-4.43-11.76-3.33-11.98,7.06-17.33,12.45-26.41ZM1984.64,1351.55c42.71-3.64,100.18-70.94,64.83-109.03-14.13-15.23-46.47-19.57-45.39,7.65,51.74-18.65,52.01,35.96,22.71,64.8-13.14,12.94-38.65,17.14-42.15,36.59ZM1931.19,1321.88c5.36-6.07,19.56,4.36,16.89-16.81-1.46-11.55-10.19-5.97-16.27-11.81-1.02-.98-6.31-11.3-6.7-12.9-2.77-11.23,15.47-19.4-6.26-31.83-9.44,4.43-8.27,10.22-19.92,6.44-16.15-5.24-16.03-20.66-23.28-22.08-20.1-3.93-11.37,18.86-33.38,22.88-10.95,2-13.7-7.03-19.42-4.63-15.33,6.44-4.39,18.37-4.29,25.93.19,13.85-9.3,20.65-21.8,21.8.88,3.69-.9,19.12.22,20.24.47.47,8.41-.26,12.8,3.39,1.99,1.65,7.76,12.9,8.29,15.57,1.81,9.19-6.75,15.98-2.88,22.11.37.59,10.46,8.35,11.15,8.48,3.53.65,5.58-6.47,12.59-6.5,15.88-.06,20.67,11.12,24.13,24.01l17.98-.11c-.04-13.47.78-18.08,13.94-21.65,16.29-4.41,24.31,9.24,35.12-7.43-2.48-5.93-6.59-10.1-5.87-17.08.13-1.24,6.34-17.29,6.98-18.02ZM1995.44,1321.35c21.27-9.48,43.68-28.99,38.76-54.96-1.67-8.84-9.9-10.84-17.77-9.29-18.14,3.57-10.59,15.65-12.61,28.43-.89,5.62-9.55,34.4-8.38,35.82Z"/>
    </g>
  </g>
  <g>
    <path class="cls-10" d="M2654.03,300.1c-.53-2.52-.61-4.55-1.35-7.36-2.76-10.65-7.25-17.09-14.95-24.57-7.25-6.01-12.41-8.38-21.25-11.11-11.44-1.96-17.81-1.62-28.84,2.33-20.29,9.79-28.56,21.93-30.25,44.24.33,6.15.71,10.62,2.88,16.49,7.76,21,27.09,32.92,49.29,31.47,1.52-.09,3.04-.25,4.55-.47,18.94-2.34,34.47-17.45,38.8-35.75,1.27-5.35,1.22-9.84,1.1-15.26ZM2609.61,341.75c-20.86,2.05-39.43-13.21-41.45-34.08-2.02-20.87,13.28-39.41,34.15-41.4,20.82-1.98,39.31,13.27,41.33,34.09,2.02,20.82-13.21,39.34-34.02,41.39Z"/>
    <path class="cls-10" d="M2770.03,198.92c68.56-21.97,101.02,42.37,72.83,100.78-12.16,25.2-41.03,50.58-66.57,61.17-11.45,4.75-34.21,8.34-41.57,13.61-10.03,7.19-23.05,33.62-36.56,41.33,12.5,2.91,27.71,1.48,39.22,8.43,15.48,9.35-7.55,15.54-15.72,17.72-47.19,12.61-199.08,15.93-241.8-4.86-26.04-12.68,28.25-21.04,37.28-21.3-28.17-23.74-50.1-55.12-61.05-90.63-11.54-37.4-18.44-99.5-13.22-137.98,2.42-17.83,13.76-25.73,29.58-31.63,59.17-22.08,225.74-25.13,281.32,5.06,15.9,8.64,17.5,21.04,16.27,38.29ZM2753.38,187.65c11.05-10.13-20.65-20.31-28.04-22.56-58.02-17.7-168.63-17.76-227.36-2.62-8.02,2.07-29.43,8.33-35.11,12.79-5.1,4.01-7.79,10.43-.59,13.37,12.89,5.26,31.38-5.71,45.21-8.67,57.2-12.25,120.07-14.86,177.84-4.14,15.97,2.96,39.04,13.49,51.65,15.08,4.64.58,12.94-.08,16.4-3.24ZM2581.02,182.99l-40.88,2.99-28.29,7.59,69.18-10.59ZM2695.47,190.98c-20.13-3.95-40.48-9.12-61.19-7.99l52.62,9.91,8.57-1.92ZM2535.78,220.24c-27.71-3.6-54.78-8.66-79.82-21.31-3.36,74.47,13.25,184.73,92.44,214.89,24.25,9.24,58.37,13.54,84.21,10.96,106.66-10.66,128.12-138.71,124.06-225.85-22.92,15.02-53.28,16.87-79.82,21.31-1.21.97,16.79,16.89,17.45,22.55,1.09,9.3-11.03,17.33-5.53,28.03,3.74,7.28,20.07,6.15,24.75,15.18,4.45,8.59,4.85,35.13-3.79,40.26-5.88,3.49-13.25.47-19.29,7.31-12.28,13.9,3.61,18.35,2.46,28.91-.73,6.74-21.5,27.57-28.16,28.18-7.81.71-14.46-10.85-24.39-6.24-11.16,5.18-7.13,24.73-20.78,27.33-5.4,1.03-26.01.91-30.56-1.26-9.01-4.3-6.59-25.66-20.58-27.59-9.93-1.37-11.53,13.63-27.18,3.49-3.18-2.06-20.34-19.17-21.05-21.74-2.93-10.67,10-15.6,4.67-25.52-9.45-17.59-28.02-2.47-26.44-35.17,1.59-32.93,20.72-20.52,27.46-36.63,2.92-6.98-3.93-8.97-5.46-14.5-4.1-14.77,8.71-21.38,15.36-32.57ZM2746.07,355.91c52.68-4.49,123.56-87.49,79.96-134.48-17.43-18.78-57.31-24.14-55.99,9.43,63.81-23,64.15,44.35,28.02,79.92-16.21,15.96-47.67,21.14-51.98,45.13ZM2680.14,319.32c6.61-7.49,24.13,5.38,20.83-20.73-1.8-14.24-12.57-7.36-20.07-14.57-1.25-1.21-7.78-13.94-8.27-15.92-3.42-13.85,19.08-23.93-7.72-39.26-11.64,5.47-10.2,12.61-24.57,7.94-19.92-6.47-19.77-25.48-28.71-27.23-24.79-4.85-14.02,23.26-41.17,28.22-13.5,2.47-16.9-8.67-23.96-5.7-18.91,7.94-5.42,22.66-5.29,31.99.24,17.08-11.47,25.47-26.89,26.89,1.08,4.55-1.11,23.58.27,24.96.58.58,10.37-.32,15.79,4.18,2.45,2.04,9.57,15.91,10.22,19.21,2.23,11.34-8.32,19.71-3.55,27.27.46.73,12.9,10.3,13.75,10.46,4.36.81,6.88-7.98,15.53-8.02,19.58-.08,25.49,13.72,29.76,29.61l22.17-.13c-.05-16.62.96-22.3,17.2-26.7,20.09-5.44,29.98,11.4,43.31-9.17-3.06-7.31-8.12-12.46-7.25-21.06.16-1.53,7.82-21.33,8.61-22.22ZM2759.39,318.67c26.24-11.69,53.87-35.75,47.81-67.79-2.06-10.9-12.21-13.36-21.91-11.45-22.37,4.4-13.06,19.3-15.56,35.06-1.1,6.93-11.78,42.42-10.34,44.18Z"/>
  </g>
  <g>
    <path d="M1879.48,300.1c-.53-2.52-.61-4.55-1.35-7.36-2.76-10.65-7.25-17.09-14.95-24.57-7.25-6.01-12.41-8.38-21.25-11.11-11.44-1.96-17.81-1.62-28.84,2.33-20.29,9.79-28.56,21.93-30.25,44.24.33,6.15.71,10.62,2.88,16.49,7.76,21,27.09,32.92,49.29,31.47,1.52-.09,3.04-.25,4.55-.47,18.94-2.34,34.47-17.45,38.8-35.75,1.27-5.35,1.22-9.84,1.1-15.26ZM1835.06,341.75c-20.86,2.05-39.43-13.21-41.45-34.08-2.02-20.87,13.28-39.41,34.15-41.4,20.82-1.98,39.31,13.27,41.33,34.09,2.02,20.82-13.21,39.34-34.02,41.39Z"/>
    <path d="M1995.48,198.92c68.56-21.97,101.02,42.37,72.83,100.78-12.16,25.2-41.03,50.58-66.57,61.17-11.45,4.75-34.21,8.34-41.57,13.61-10.03,7.19-23.05,33.62-36.56,41.33,12.5,2.91,27.71,1.48,39.22,8.43,15.48,9.35-7.55,15.54-15.72,17.72-47.19,12.61-199.08,15.93-241.8-4.86-26.04-12.68,28.25-21.04,37.28-21.3-28.17-23.74-50.1-55.12-61.05-90.63-11.54-37.4-18.44-99.5-13.22-137.98,2.42-17.83,13.76-25.73,29.58-31.63,59.17-22.08,225.74-25.13,281.32,5.06,15.9,8.64,17.5,21.04,16.27,38.29ZM1978.83,187.65c11.05-10.13-20.65-20.31-28.04-22.56-58.02-17.7-168.63-17.76-227.36-2.62-8.02,2.07-29.43,8.33-35.11,12.79-5.1,4.01-7.79,10.43-.59,13.37,12.89,5.26,31.38-5.71,45.21-8.67,57.2-12.25,120.07-14.86,177.84-4.14,15.97,2.96,39.04,13.49,51.65,15.08,4.64.58,12.94-.08,16.4-3.24ZM1806.47,182.99l-40.88,2.99-28.29,7.59,69.18-10.59ZM1920.92,190.98c-20.13-3.95-40.48-9.12-61.19-7.99l52.62,9.91,8.57-1.92ZM1761.23,220.24c-27.71-3.6-54.78-8.66-79.82-21.31-3.36,74.47,13.25,184.73,92.44,214.89,24.25,9.24,58.37,13.54,84.21,10.96,106.66-10.66,128.12-138.71,124.06-225.85-22.92,15.02-53.28,16.87-79.82,21.31-1.21.97,16.79,16.89,17.45,22.55,1.09,9.3-11.03,17.33-5.53,28.03,3.74,7.28,20.07,6.15,24.75,15.18,4.45,8.59,4.85,35.13-3.79,40.26-5.88,3.49-13.25.47-19.29,7.31-12.28,13.9,3.61,18.35,2.46,28.91-.73,6.74-21.5,27.57-28.16,28.18-7.81.71-14.46-10.85-24.39-6.24-11.16,5.18-7.13,24.73-20.78,27.33-5.4,1.03-26.01.91-30.56-1.26-9.01-4.3-6.59-25.66-20.58-27.59-9.92-1.37-11.53,13.63-27.18,3.49-3.18-2.06-20.34-19.17-21.05-21.74-2.93-10.67,10-15.6,4.67-25.52-9.45-17.59-28.02-2.47-26.44-35.17,1.59-32.93,20.72-20.52,27.46-36.63,2.92-6.98-3.93-8.97-5.46-14.5-4.1-14.77,8.71-21.38,15.36-32.57ZM1971.52,355.91c52.68-4.49,123.56-87.49,79.96-134.48-17.43-18.78-57.31-24.14-55.99,9.43,63.81-23,64.15,44.35,28.02,79.92-16.21,15.96-47.67,21.14-51.98,45.13ZM1905.59,319.32c6.61-7.49,24.13,5.38,20.83-20.73-1.8-14.24-12.57-7.36-20.07-14.57-1.25-1.21-7.78-13.94-8.27-15.92-3.42-13.85,19.08-23.93-7.72-39.26-11.64,5.47-10.2,12.61-24.57,7.94-19.92-6.47-19.77-25.48-28.71-27.23-24.79-4.85-14.02,23.26-41.17,28.22-13.5,2.47-16.9-8.67-23.96-5.7-18.91,7.94-5.42,22.66-5.29,31.99.24,17.08-11.47,25.47-26.89,26.89,1.08,4.55-1.11,23.58.27,24.96.58.58,10.37-.32,15.79,4.18,2.45,2.04,9.57,15.91,10.22,19.21,2.23,11.34-8.32,19.71-3.55,27.27.46.73,12.9,10.3,13.75,10.46,4.36.81,6.88-7.98,15.53-8.02,19.58-.08,25.49,13.72,29.76,29.61l22.17-.13c-.05-16.62.96-22.3,17.2-26.7,20.09-5.44,29.98,11.4,43.31-9.17-3.06-7.31-8.12-12.46-7.25-21.06.16-1.53,7.82-21.33,8.61-22.22ZM1984.84,318.67c26.24-11.69,53.87-35.75,47.81-67.79-2.06-10.9-12.21-13.36-21.91-11.45-22.37,4.4-13.06,19.3-15.56,35.06-1.1,6.93-11.78,42.42-10.34,44.18Z"/>
  </g>
  <g>
    <g>
      <g>
        <path class="cls-9" d="M439.53,1265.96c-3.43-22.1-26.65-36.88-48.22-33-2.49.45-5.02,1.3-7.52,1.82.34-4.36.32-9.21-.45-13.5-1.39-7.76-9.84-11.32-16.09-14.36-7-3.4-14.42-4.84-21.97-6.4-14.17-2.99-28.53-5-42.98-6.01-10.45-.67-24.62-1.27-35.05-.97-10.93.15-21.85.67-32.74,1.55-13.2,1.27-26.31,3.34-39.26,6.19-11.01,2.48-23.51,5.44-31.96,13.49-4.86,4.63-3.77,10.88-4.28,16.93-1.08,13.86-1.28,28.04.17,41.88.61,5.81,1.04,11.58,1.83,17.35,4.63,32.35,16.94,65.31,40.72,88.47,2.69,2.62,5.96,5.44,9.11,7.48-6.31-.02-26.6,3.56-30.85,7.65-.69.67-1.1,1.47-1.08,2.44.02,1.13.56,2.1,1.38,2.85,8.66,8.02,63.86,10.96,76.94,11.27,16.11.42,32.24.16,48.33-.77,7.89-.5,17.3-1.18,25.07-2.2,8.28-1.07,27.83-4.31,34.12-9.32.05-3.24-.29-4.5-3.5-5.88-8.33-3.6-19.47-6.05-28.49-6.06,10.2-8.18,20.5-18.87,26.79-30.42,27.29-5.18,52.45-17.61,68.47-41.15,10.03-14.74,14.3-31.49,11.52-49.35ZM379.49,1304.88c2.49-10.96,3.47-22.27,5.16-33.37.4-2.63,3.15-4.6,5.28-5.89,2.86-1.66,6.02-2.74,9.33-2.85,3.54.14,8.15,2.9,9.74,6.12,3.17,6.42,2.38,13.21.05,19.78-2.3,6.34-6.98,13.42-11.82,18.19-3.3,3.26-9.68,8.15-13.72,10.04-2.79,1.28-5.54,2.62-8.27,4.03,1.98-4.96,3.05-10.81,4.24-16.05Z"/>
        <path class="cls-8" d="M211.42,1375.44s38.88,41.02,110.51,8.27c21.43-15,57.55-45.1,55.1-149.29,0,0-66.3,31.83-167.85,12.95-38.79-5.71-37.57-5.71-37.57-5.71,0,0-.51,109.39,39.8,133.78Z"/>
        <path class="cls-28" d="M354.88,1249.82s4.4,89.9-57.44,123.58c-16.23,11.02-44.7,19.08-86.02,2.04-13.16-14.9-36.96-45.19-38.68-107.65-.81-21.13-1.11-26.13-1.11-26.13,0,0,48.86,13.76,102.76,11.69,22.4-.87,31.62-.79,45.4-3.43,0,0,16.43-.23,35.11-1.67v1.58Z"/>
        <path class="cls-4" d="M354.88,1249.82s4.4,89.9-57.44,123.58c-16.23,11.02-44.7,19.08-86.02,2.04-13.16-14.9-36.96-45.19-38.68-107.65-.81-21.13-1.11-26.13-1.11-26.13,0,0,48.86,13.76,102.76,11.69,22.4-.87,31.62-.79,45.4-3.43,0,0,16.43-.23,35.11-1.67v1.58Z"/>
        <path class="cls-12" d="M167.54,1234.41s-7.96,95.51,43.88,141.03c0,0-38.27-39.19-36.12-130.72,0,0,20.51,10.41,53.27,11.94l11.33-4.9s-61.12-6.53-72.35-17.35Z"/>
        <path class="cls-17" d="M377.15,1240.54s-22.47,16.71-57.37,9.38c0,0,36.13-5.29,57.25-15.5l.12,6.12Z"/>
        <path class="cls-16" d="M195.84,1231.65s-12.35,5.05,14.18,8.62c26.53,3.57,73.1,5.94,109.41,1.39s39.37-7.71,40.8-10.01-59.19-17.77-102.45-14.01c-43.27,3.76-61.94,14.01-61.94,14.01Z"/>
        <path class="cls-26" d="M191.04,1228.74l3.88,6.94s-4.69,2.86,11.84,0c16.12-2.86,51.79-19.69,118.45-4.03,11.35,3.01,24.59,1.63-7.46-7.07-19.15-5.64-41.19-9.72-74.25-4.62-33.06,5.1-52.45,8.78-52.45,8.78Z"/>
        <path class="cls-9" d="M179.61,1229.56s-1.22,3.67,15.31,6.12c4.69-3.06,51.39-22.52,140.01-8.78,20.61,4.08,23.88,7.51,23.88,7.51l7.25-3.57-6.43-11.49s-56.74-17.31-109.19-7.33c-52.45,9.98-68.57,5.69-70.82,17.53Z"/>
        <path class="cls-13" d="M430.44,1288.13c-10.82,47.55-64.39,57.78-64.39,57.78l1.24-3,5.18-12.53c42.86-13.27,46.74-44.7,46.94-54.9-2.65-31.43-35.1-17.71-35.1-17.71v-13.6c44.08-12.74,48.78,25.6,46.12,43.96Z"/>
        <path class="cls-19" d="M169.05,1222.16s5.12-17.03,90.16-19.44c56.33-1.99,94.44,6.28,105.92,12.55,10.1,5.36,16.07,8.57-.77,16.38-3.37-1.53-26.33-13.93-78.68-15.77-35.05-.15-71.18-1.38-103.78,15.77,0,0-13.01-2.6-12.86-9.49Z"/>
        <path class="cls-5" d="M365.13,1215.27s-33.58-8.48-110.67-8.72c-69.75,4.13-85.41,15.61-85.41,15.61,0,0,1.61-11.17,47.57-17.14,33.56-3.21,40.28-4.05,81.92-2.02,31.84,1.72,55.26,5.7,66.59,12.28Z"/>
        <path class="cls-11" d="M420.03,1299.56c-13.06,19.18-16.36,26.42-42.88,38.93-3.89,1.78-7.14,3.23-9.86,4.42l5.18-12.53c42.86-13.27,46.74-44.7,46.94-54.9-2.65-31.43-35.1-17.71-35.1-17.71v-7.88c3.57-2.47,10.21-4.65,22.24-2.57,9.39,2.24,30.61,17.35,13.47,52.25Z"/>
      </g>
      <path class="cls-15" d="M329.85,1287.66c-1.33-3.4-2.39-5.57-4.06-8.79,2-2.94,4.54-6.7,5.96-9.91,3.05-6.89-5.1-13.67-9.78-17.67-2-1.34-4.04-2.75-6.11-4-4.74-2.57-8.49-1.42-10.53-.32l-.66.45-1.11.76-.06.04-1.34.88c-1.26.83-2.51,1.69-3.74,2.57-1.35-.55-3.15-1.23-4.42-1.89-.57-.09-2.87-1.11-3.47-1.36l-2.15-8.88c-2.77-8.56-7.51-8.14-17.13-7.96-8.57.16-16.21-.94-18.26,8.77-.42,6.18-1.39,7.93-1.39,7.93l-2.34.96c-2.11.88-5.09,1.71-7.3,2.36-1.59-.78-4.75-2.94-6.61-4.14-.12-.08-.24-.16-.35-.23,0,0,.02,0,.03,0-3.59-2.36-6.75-1.05-7.99-.33-2.36,1.53-4.65,3.16-6.89,4.86-3.38,2.89-9.4,7.84-9.81,12.54-.33,3.67,3.78,10.76,5.81,13.92-1.43,3.09-2.78,6.21-4.04,9.37-2.28.89-4.61,1.65-6.98,2.26-2.33,1.06-7.26,1.59-8,4.44-1.7,6.54-1.82,17.26.11,23.65,1.23,4.08,11.21,5.15,14.91,6.48,1.3,2.82,2.89,6.14,4.05,8.98-2.23,5.23-6.2,9.73-5.53,15.36,2.28,3.8,5.35,6.87,8.73,9.99,4.36,4.03,10.95,10.82,17.39,6.61,1.11-.73,2.61-1.92,3.71-2.53l3.37-2.59c2.36.99,5.36,2.04,7.55,3.03.17,1.13.35,2.25.55,3.37.15.28.53,1.98.64,2.4.78,2.86,1.25,5.73,2.89,8.25,1.12,1.71,3.73,2.79,5.64,3.06,4.51.62,17.47,1.15,21.36.27,1.13-.25,2.18-.73,3.11-1.41,4.2-3.04,4.42-10.66,5.31-15.65l7.89-3.56c6.44,4.64,11.47,10.12,19.32,4.14,4.88-3.72,9.57-7.98,13.08-13.05,1.58-2.28,1.32-4.75.66-7.24-1.61-3.24-3.62-6.29-5.6-9.31,1.68-2.93,3.04-6.03,4.06-9.26,3.88-1.58,10.63-2.66,14-4.88.01-.03.79-1.09.89-1.26.95-1.58,1.07-2.37,1.29-4.11.33-4.07.01-8.32.22-12.11.75-13.68-6.69-11.38-16.9-15.25ZM274.65,1331.66c-14.31,1.41-27.05-9.06-28.43-23.37-1.39-14.31,9.11-27.03,23.42-28.39,14.28-1.36,26.96,9.1,28.35,23.38,1.38,14.28-9.06,26.98-23.33,28.39Z"/>
      <path class="cls-9" d="M346.75,1302.91c.75-13.69-6.69-11.38-16.9-15.25-1.33-3.4-2.39-5.57-4.06-8.79,2-2.94,4.54-6.7,5.96-9.91,3.05-6.89-5.1-13.67-9.78-17.67-2-1.34-4.04-2.75-6.1-4-5.78-3.14-10.11-.74-11.61.35.05,0,.11-.01.16-.02l-2.24,1.46c-1.26.83-2.51,1.69-3.74,2.57-1.35-.55-3.15-1.23-4.42-1.89-.57-.09-2.87-1.11-3.47-1.36l-2.15-8.88c-2.77-8.56-7.51-8.14-17.13-7.96-8.57.16-16.21-.94-18.26,8.77-.41,6.18-1.39,7.93-1.39,7.93l-2.34.96c-2.11.88-5.09,1.71-7.3,2.37-1.59-.78-4.75-2.94-6.61-4.14-.12-.08-.24-.16-.35-.23h.02c-3.59-2.36-6.75-1.04-7.99-.32-2.36,1.53-4.65,3.15-6.89,4.86-3.38,2.89-9.4,7.84-9.81,12.53-.32,3.67,3.78,10.76,5.81,13.92-1.43,3.09-2.78,6.21-4.03,9.37-2.28.89-4.61,1.65-6.98,2.26-2.33,1.06-7.26,1.6-8,4.44-1.7,6.54-1.82,17.26.11,23.65,1.23,4.08,11.21,5.15,14.91,6.49,1.3,2.82,2.9,6.14,4.05,8.98-2.23,5.23-6.2,9.73-5.53,15.36,2.28,3.8,5.35,6.87,8.73,9.99,4.36,4.03,10.95,10.82,17.39,6.61,1.11-.73,2.61-1.92,3.71-2.53l3.37-2.59c2.36.99,5.35,2.04,7.55,3.03.16,1.13.35,2.25.55,3.37.14.28.53,1.98.64,2.4.78,2.86,1.25,5.73,2.89,8.24,1.12,1.71,3.73,2.8,5.64,3.06,4.51.62,17.47,1.15,21.36.27,1.12-.25,2.18-.73,3.11-1.41,4.2-3.04,4.42-10.66,5.31-15.65l7.89-3.56c6.44,4.64,11.48,10.12,19.32,4.14,4.88-3.72,9.57-7.98,13.08-13.05,1.58-2.28,1.32-4.75.66-7.24-1.61-3.24-3.63-6.28-5.6-9.31,1.68-2.93,3.04-6.03,4.06-9.26,3.88-1.58,10.63-2.66,14-4.88.01-.03.79-1.09.89-1.26.95-1.58,1.07-2.37,1.29-4.11.33-4.07.01-8.32.22-12.11ZM339.04,1315.13c-1.68,1.09-6.57,2.49-8.41,2.76-6.84,1.02-6.09,3.91-8.45,9.34-1.03,2.38-3.39,4.99-3.47,7.84l.72,1.78c1.19,1.96,5.72,8.97,5.16,10.93-.61,2.12-10.4,11.04-12.53,11.87-.84.33-1.79.05-2.56-.33-2.96-1.45-7.88-7.35-11.01-6.34-2.26.73-4.38,2.02-6.56,2.98-1.51.66-4.68,1.57-5.89,2.46-.48.36-.83.8-1.08,1.35-1.33,2.9-.74,12.69-3.97,13.91-2.11.8-17.29.48-19.48-.54-.2-.09-.18-.09-.34-.19-2.14-2.41-2.35-11.9-3.38-14.24-1.8-1.41-4.54-2-6.7-2.88-1.51-.62-6.18-3.29-7.58-2.94-3.95.99-7.92,6.63-12.08,7.07-2.85-1.66-10.37-9.17-12.59-11.88-2.69-3.9,6.52-12.15,4.15-16.14-1.62-2.72-4.05-10.52-5.73-12.56l-.62-.29c-1.47-1.41-10.22-2.06-12.95-4.26-1.32-2.27-1.08-14.01-.51-16.92.59-3,13.65-3.27,14.67-5.78,1.13-2.77,5.79-12.56,5.52-14.87-.5-.42-.9-1.51-1.17-2.13-.99-1.34-4.36-8.13-5.07-9.79.62-2.59,10.09-10.1,12.56-12.08,1.08-.87,1.49-1.15,2.82-.96,2.95,1.83,5.63,4.51,8.65,6.33,2.89.66,4.25-.84,6.86-1.92,2.33-.99,6.9-1.7,8.61-3.42,2.32-2.39,1.67-14.27,5.35-14.68,3.1-.35,15.88-1.11,18.13.26,1.52,2.96,2.07,6.87,2.9,10.1.35,1.37.3,3.12,1.37,4.06,2.52,1.29,11.68,5.34,14.48,5.65,2.74.31,9.81-8,13.23-6.17,2.88,1.54,11.11,9.28,12.95,11.96.06,5.57-6.43,9.69-6.1,14.41-.02-.23,6.08,13.49,6.3,13.78,2.96,1.87,10.83,2.78,14.14,5,1.17,2.65.91,14.81-.3,17.51Z"/>
      <path class="cls-14" d="M275.12,1372.79c-4.81,0-10.52-.34-12.84-.66-.04,0-.1-.02-.17-.04-.37-.86-.67-2.04-1-3.36-.15-.59-.3-1.2-.47-1.84-.03-.1-.06-.24-.1-.41-.18-.74-.33-1.35-.49-1.88-.14-.8-.27-1.63-.4-2.52-.41-2.79-2.21-5.19-4.78-6.35-1.49-.68-3.17-1.32-4.79-1.95-1.08-.42-2.1-.81-2.99-1.18-1.03-.43-2.12-.64-3.21-.64-1.8,0-3.58.58-5.05,1.71l-2.96,2.27c-.88.54-1.73,1.15-2.49,1.7-.36.26-.74.53-1.01.71-.3-.09-.96-.36-2.06-1.13-1.48-1.04-3.04-2.49-4.41-3.78-.29-.27-.57-.53-.84-.78-2.48-2.29-4.43-4.24-5.95-6.25.36-1.27,1.23-2.86,2.19-4.63.83-1.52,1.76-3.24,2.56-5.12.87-2.04.88-4.33.05-6.38-.96-2.36-2.13-4.86-3.25-7.28-.32-.7-.64-1.38-.94-2.04-.93-2.02-2.64-3.59-4.73-4.34-1.38-.5-3-.88-4.71-1.29-1.39-.33-3.95-.94-5.48-1.52-.82-4.18-.85-10.35-.09-15.03.2-.06.39-.12.55-.17.84-.26,1.71-.52,2.58-.86,2.49-.67,4.96-1.48,7.34-2.41,2.14-.84,3.83-2.53,4.68-4.66,1.2-3.02,2.5-6.03,3.85-8.95,1.2-2.58.99-5.59-.55-7.98-2.54-3.95-4.02-7.28-4.42-8.73.22-.4.74-1.19,1.88-2.4,1.41-1.5,3.13-2.97,4.52-4.15l.26-.22c1.76-1.34,3.58-2.63,5.41-3.85l.08.05c.39.25.85.55,1.33.87,2.58,1.7,4.53,2.96,6.12,3.74,1.15.57,2.4.85,3.66.85.79,0,1.58-.11,2.35-.34.28-.08.57-.17.87-.26,2.22-.65,4.99-1.46,7.24-2.4l2.32-.94c1.75-.71,3.2-2,4.12-3.65,1.2-2.15,1.99-5.75,2.37-10.73.19-.71.37-1.03.43-1.12.11-.06.55-.25,1.64-.38,1.45-.18,3.34-.19,5.34-.19.89,0,1.81,0,2.77-.02l1.05-.02c1.17-.02,2.27-.05,3.25-.05,2.6,0,3.56.18,3.91.29.13.18.42.67.78,1.72l2.07,8.54c.62,2.55,2.41,4.66,4.82,5.69.07.03.17.07.29.13,1.46.63,2.51,1.06,3.37,1.35,1.15.55,2.37,1.04,3.46,1.47.3.12.59.24.86.35,1.01.41,2.08.62,3.14.62,1.71,0,3.41-.53,4.84-1.56,1.1-.79,2.26-1.59,3.46-2.38l1.32-.86s.18-.12.21-.14l1.28-.87c.21-.08.42-.12.64-.12.54,0,1.15.24,1.6.48,1.44.88,2.91,1.87,4.45,2.91.24.16.48.32.72.48,1.67,1.42,3.71,3.18,5.26,4.96,1.41,1.63,1.79,2.56,1.88,2.88-1.2,2.62-3.67,6.25-5.15,8.43-1.72,2.52-1.91,5.78-.51,8.49,1.66,3.2,2.54,5.02,3.69,7.99.85,2.19,2.59,3.92,4.79,4.75,2.81,1.07,5.41,1.73,7.49,2.26,1.33.34,3.1.79,3.9,1.15.11.46.27,1.54.16,3.63-.11,1.95-.09,3.91-.08,5.81.01,2.07.03,4.04-.11,5.87-1.43.52-3.41,1.07-4.76,1.45-2.14.6-4.36,1.21-6.29,2-2.29.93-4.04,2.84-4.79,5.19-.83,2.65-1.96,5.21-3.34,7.62-1.56,2.71-1.46,6.06.25,8.68l.3.46c1.62,2.48,3.16,4.83,4.41,7.2,0,.04.01.07.02.11-2.53,3.5-6.12,7-10.95,10.69-1,.76-1.56.93-1.65.93,0,0-.33-.01-1.21-.5-1.16-.64-2.58-1.71-4.08-2.85-.79-.6-1.61-1.22-2.49-1.85-1.44-1.03-3.14-1.56-4.85-1.56-1.16,0-2.32.24-3.42.74l-7.89,3.56c-2.5,1.13-4.28,3.41-4.76,6.11-.19,1.06-.35,2.18-.5,3.26-.25,1.79-.51,3.64-.91,5.18-.31,1.19-.58,1.76-.72,1.99-.24.04-1.63.25-5.52.25ZM272.13,1271.47c-1.09,0-2.19.05-3.28.16-9.13.87-17.38,5.24-23.21,12.32-5.84,7.08-8.57,16-7.68,25.14,1.71,17.68,16.38,31,34.12,31,1.13,0,2.27-.06,3.39-.17,18.8-1.85,32.61-18.65,30.78-37.45-1.71-17.67-16.38-31-34.12-31Z"/>
      <path class="cls-25" d="M307.97,1286.35c-9.68-17.73-30.78-25.83-49.84-19.13-19.05,6.7-30.44,26.23-26.9,46.11,2.87,16.07,14.94,28.93,30.8,32.79,15.85,3.87,32.5-1.98,42.44-14.92,9.94-12.94,11.31-30.53,3.49-44.85ZM246.22,1308.28c-1.39-14.31,9.1-27.03,23.42-28.39,14.28-1.36,26.96,9.1,28.35,23.38,1.38,14.28-9.06,26.98-23.33,28.39-14.31,1.41-27.05-9.06-28.43-23.37Z"/>
      <path class="cls-9" d="M305.12,1303.09c-.37-1.73-.42-3.12-.92-5.05-1.9-7.3-4.97-11.72-10.25-16.85-4.97-4.12-8.51-5.75-14.57-7.62-7.84-1.35-12.21-1.11-19.78,1.6-13.92,6.71-19.59,15.04-20.74,30.34.23,4.22.49,7.28,1.97,11.31,5.32,14.4,18.58,22.58,33.81,21.58,1.04-.07,2.09-.17,3.12-.32,12.99-1.61,23.64-11.97,26.61-24.52.87-3.67.83-6.75.76-10.46ZM274.65,1331.66c-14.31,1.41-27.05-9.06-28.43-23.37-1.39-14.31,9.1-27.03,23.42-28.39,14.28-1.36,26.96,9.1,28.35,23.38,1.38,14.28-9.06,26.98-23.33,28.39Z"/>
    </g>
    <g>
      <path class="cls-9" d="M530.1,1279.64c-8.14-1.14-18.39-1.79-24.9,3.26l-1.31-25.55s-.48-9.11-11.39-9.11-16.27,1.13-18.39,4.88v97.32s5.53,20.5,45.4,21.31c27.5,0,43.29-15.13,45.73-40.84,2.12-24.09-6.99-47.35-35.14-51.26ZM522.17,1348.21c-17.25,1.95-16.44-6.35-16.44-6.35v-33.25c0-2.49,5.05-6.78,13.18-6.46,14.48.65,14.48,17.73,14.48,17.73,0,0,3.41,26.36-11.23,28.31Z"/>
      <path class="cls-9" d="M577.12,1295.27v67.69s2.28,6.51,7.97,6.67c5.7.16,16.6,0,16.6,0,0,0,5.53,1.14,5.53-5.7v-55.16s7.32-7.97,22.78-6.51c6.02.33,6.67-2.12,7.32-7,.65-4.88,2.77-15.95-14.65-15.78-17.41.16-32.52.37-45.56,15.78Z"/>
      <path class="cls-9" d="M710.08,1346.36c-7.65,4.56-32.87,9.11-41.02-10.09,0,0,41.5-3.74,46.22-4.88,4.72-1.14,15.79-8.96,8.78-28.97-6.99-20.01-28.15-26.2-49.31-22.95-16.92,2.77-34.33,18.07-34.66,46.38-.32,28.31,16.76,42.8,43.77,46.38,20.34,2.27,38.9-5.86,39.22-16.27.33-10.42-5.37-14.16-13.01-9.61ZM681.1,1301.45c10.25-1.63,15.14,3.1,18.55,12.21l-31.57,2.44s.98-13.01,13.02-14.65Z"/>
      <path class="cls-9" d="M731.12,1287.89l18.88,73.77s2.6,10.2,21.26,9.11c13.02-1.08,15.62-2.17,18.88-16.71,3.25-14.54,7.38-34.06,7.38-34.06l9.98,38.84s3.04,11.88,20.61,12.01c12.58.14,18.88-3.34,20.83-12.23,1.95-8.9,15.19-66.61,15.19-66.61,0,0-1.52-12.48-13.89-12.53-12.37-.05-14.75,4.94-16.27,16.65s-7.59,46.65-7.59,46.65l-9.55-44.48s-2.82-13.89-17.57-13.89-18.01,8.46-20.83,19.96c-2.82,11.5-8.68,37.97-8.68,37.97l-7.16-47.3s-.65-16.17-15.62-15.57c-9.98,1.03-14.1,1.25-15.84,8.41Z"/>
      <path class="cls-9" d="M1007.54,1279.46s-31.03-1.34-36.23,26.43c-.43,12.8,5.64,23,27.12,27.99,20.83,4.99,13.89,4.12,13.89,4.12,0,0,11.93,5.21-.22,10.85-7.59,3.25-22.13-.87-27.56-3.69-5.42-2.82-7.38-2.39-9.33-.22-1.95,2.17-12.58,23.6,20.18,25.9,29.72,2.3,47.3-4.42,51.2-21.78,3.91-17.36-5.21-25.6-24.73-32.98-19.09-4.34-21.91-5.64-19.96-10.63,1.95-4.99,14.1-5.42,20.4-4.12s14.54,7.59,18.23.87,6.94-24.23-32.98-22.75Z"/>
      <path class="cls-9" d="M916.1,1279.38s-47.21-1.03-45.69,49.74c1.3,39.27,34.93,43.57,49.9,42.18,14.97-1.4,41.44-7.91,43.4-49.56-.87-23.65-20.15-43.72-47.61-42.36ZM916.2,1348.42c-9.77-.22-12.8-6.51-15.4-21.05-2.39-23.43,15.4-25.17,15.4-25.17,11.93.88,14.76,7.6,15.4,24.74.65,17.15-8.03,21.7-15.4,21.48Z"/>
    </g>
  </g>
  <g>
    <g>
      <path class="cls-9" d="M1129.95,305.44c-8.48-54.61-65.86-91.13-119.16-81.55-6.16,1.11-12.4,3.22-18.59,4.49.83-10.77.78-22.76-1.11-33.36-3.43-19.18-24.32-27.99-39.75-35.48-17.29-8.4-35.64-11.96-54.3-15.82-35.02-7.4-70.51-12.36-106.21-14.84-25.83-1.66-60.85-3.13-86.6-2.39-27,.37-53.99,1.66-80.9,3.84-32.62,3.14-65.02,8.25-97.03,15.3-27.2,6.12-58.09,13.44-78.97,33.33-12.01,11.44-9.33,26.89-10.57,41.85-2.68,34.25-3.17,69.28.42,103.49,1.51,14.35,2.57,28.61,4.53,42.88,11.43,79.93,41.85,161.39,100.62,218.61,6.66,6.48,14.72,13.43,22.51,18.48-15.6-.05-65.74,8.8-76.24,18.91-1.72,1.65-2.71,3.63-2.67,6.03.05,2.79,1.39,5.18,3.41,7.05,21.4,19.81,157.8,27.09,190.12,27.85,39.82,1.03,79.66.39,119.43-1.91,19.49-1.24,42.75-2.93,61.94-5.43,20.46-2.64,68.78-10.65,84.32-23.02.12-8.01-.72-11.11-8.65-14.54-20.58-8.9-48.11-14.94-70.41-14.98,25.2-20.21,50.65-46.64,66.2-75.16,67.45-12.81,129.61-43.51,169.19-101.69,24.78-36.43,35.33-77.82,28.48-121.95ZM981.6,401.6c6.15-27.09,8.59-55.03,12.74-82.46.98-6.5,7.78-11.37,13.04-14.56,7.08-4.1,14.89-6.76,23.06-7.05,8.75.35,20.15,7.17,24.07,15.12,7.84,15.87,5.87,32.64.13,48.88-5.68,15.66-17.26,33.16-29.2,44.95-8.16,8.06-23.92,20.13-33.89,24.81-6.89,3.17-13.7,6.49-20.43,9.96,4.9-12.25,7.55-26.71,10.48-39.65Z"/>
      <path class="cls-8" d="M566.26,575.97s96.08,101.37,273.1,20.43c52.96-37.07,142.22-111.46,136.17-368.92,0,0-163.84,78.65-414.78,32.01-95.86-14.11-92.83-14.11-92.83-14.11,0,0-1.26,270.32,98.35,330.59Z"/>
      <path class="cls-22" d="M920.77,265.54s10.88,222.16-141.94,305.38c-40.09,27.23-110.45,47.16-212.58,5.04-32.53-36.82-91.33-111.67-95.59-266.02-1.99-52.22-2.75-64.58-2.75-64.58,0,0,120.74,34,253.95,28.88,55.36-2.15,78.15-1.96,112.19-8.48,0,0,40.6-.57,86.75-4.13l-.03,3.9Z"/>
      <path class="cls-18" d="M920.77,265.54s10.88,222.16-141.94,305.38c-40.09,27.23-110.45,47.16-212.58,5.04-32.53-36.82-91.33-111.67-95.59-266.02-1.99-52.22-2.75-64.58-2.75-64.58,0,0,120.74,34,253.95,28.88,55.36-2.15,78.15-1.96,112.19-8.48,0,0,40.6-.57,86.75-4.13l-.03,3.9Z"/>
      <path class="cls-12" d="M457.83,227.47s-19.67,236.03,108.43,348.49c0,0-94.56-96.83-89.27-323.03,0,0,50.69,25.72,131.63,29.5l27.99-12.1s-151.05-16.14-178.79-42.87Z"/>
      <path class="cls-17" d="M975.82,242.6s-55.53,41.29-141.76,23.17c0,0,89.27-13.08,141.47-38.3l.29,15.13Z"/>
      <path class="cls-16" d="M527.76,220.64s-30.51,12.47,35.05,21.3c65.56,8.83,180.65,14.68,270.37,3.43s97.29-19.06,100.82-24.74c3.53-5.67-146.26-43.9-253.18-34.62-106.92,9.28-153.06,34.62-153.06,34.62Z"/>
      <path class="cls-26" d="M515.91,213.45l9.58,17.15s-11.6,7.06,29.25,0c39.84-7.06,127.98-48.67,292.71-9.96,28.05,7.44,60.77,4.03-18.44-17.46-47.31-13.93-101.78-24.02-183.48-11.41-81.7,12.61-129.61,21.69-129.61,21.69Z"/>
      <path class="cls-9" d="M487.67,215.47s-3.03,9.08,37.82,15.13c11.6-7.57,126.98-55.65,345.97-21.69,50.94,10.09,59.01,18.56,59.01,18.56l17.91-8.82-15.89-28.4s-140.2-42.76-269.82-18.1c-129.61,24.66-169.46,14.07-175,43.32Z"/>
      <path class="cls-23" d="M1107.49,360.21c-26.73,117.51-159.11,142.77-159.11,142.77l3.07-7.42,12.81-30.96c105.91-32.78,115.49-110.45,116-135.67-6.55-77.67-86.74-43.77-86.74-43.77v-33.6c108.94-31.48,120.53,63.25,113.98,108.64Z"/>
      <path class="cls-19" d="M461.57,197.19s12.66-42.08,222.79-48.04c139.2-4.92,233.38,15.51,261.75,31.02,24.96,13.24,39.72,21.18-1.89,40.47-8.32-3.78-65.06-34.42-194.42-38.96-86.62-.38-175.89-3.4-256.45,38.96,0,0-32.15-6.43-31.77-23.45Z"/>
      <path class="cls-5" d="M946.11,180.17s-82.98-20.95-273.48-21.56c-172.36,10.21-211.06,38.58-211.06,38.58,0,0,3.99-27.61,117.55-42.36,82.92-7.94,99.54-10,202.43-5,78.69,4.24,136.56,14.08,164.55,30.34Z"/>
      <path class="cls-6" d="M1081.77,388.46c-32.28,47.41-40.43,65.29-105.95,96.19-9.6,4.39-17.64,7.98-24.37,10.92l12.81-30.96c105.91-32.78,115.49-110.45,116-135.67-6.55-77.67-86.74-43.77-86.74-43.77v-19.47c8.82-6.11,25.22-11.49,54.97-6.36,23.2,5.55,75.65,42.87,33.29,129.11Z"/>
    </g>
    <path class="cls-15" d="M858.93,359.05c-3.28-8.41-5.91-13.77-10.02-21.73,4.95-7.27,11.21-16.55,14.72-24.48,7.54-17.02-12.6-33.78-24.16-43.65-4.94-3.32-9.98-6.81-15.09-9.88-11.71-6.35-20.99-3.52-26.01-.8l-1.62,1.11-2.75,1.88-.14.09-3.32,2.16c-3.12,2.06-6.2,4.18-9.24,6.36-3.35-1.37-7.79-3.04-10.91-4.67-1.4-.23-7.09-2.74-8.57-3.37l-5.31-21.94c-6.83-21.16-18.55-20.12-42.33-19.67-21.19.39-40.06-2.33-45.12,21.68-1.03,15.26-3.44,19.6-3.44,19.6l-5.79,2.36c-5.22,2.18-12.58,4.23-18.04,5.84-3.93-1.93-11.74-7.26-16.33-10.23-.31-.2-.6-.39-.87-.56.02,0,.04,0,.06,0-8.87-5.84-16.67-2.58-19.75-.81-5.82,3.79-11.5,7.8-17.02,12.01-8.36,7.15-23.22,19.37-24.25,30.98-.81,9.07,9.34,26.59,14.35,34.4-3.54,7.63-6.87,15.36-9.97,23.17-5.63,2.21-11.39,4.07-17.24,5.58-5.75,2.63-17.94,3.94-19.77,10.96-4.2,16.16-4.49,42.65.27,58.45,3.03,10.07,27.7,12.73,36.85,16.02,3.21,6.97,7.15,15.17,10.01,22.18-5.5,12.92-15.31,24.05-13.66,37.96,5.62,9.39,13.22,16.98,21.56,24.69,10.78,9.95,27.05,26.74,42.96,16.34,2.75-1.8,6.45-4.75,9.17-6.26l8.33-6.39c5.84,2.44,13.23,5.03,18.66,7.49.41,2.78.86,5.56,1.36,8.32.36.7,1.31,4.89,1.59,5.93,1.92,7.07,3.09,14.17,7.14,20.38,2.77,4.23,9.23,6.9,13.93,7.55,11.14,1.52,43.17,2.84,52.78.66,2.78-.61,5.4-1.8,7.69-3.49,10.37-7.52,10.93-26.33,13.13-38.68l19.51-8.81c15.92,11.45,28.36,25.02,47.74,10.22,12.06-9.2,23.64-19.72,32.33-32.25,3.9-5.63,3.27-11.73,1.62-17.9-3.97-8.02-8.96-15.53-13.85-23.01,4.16-7.24,7.52-14.91,10.02-22.87,9.59-3.91,26.26-6.58,34.59-12.07.03-.07,1.95-2.69,2.2-3.11,2.35-3.91,2.64-5.87,3.19-10.15.81-10.06.04-20.57.55-29.93,1.85-33.82-16.52-28.12-41.75-37.68ZM722.52,467.78c-35.36,3.48-66.83-22.39-70.26-57.76-3.42-35.37,22.5-66.8,57.87-70.16,35.29-3.36,66.63,22.49,70.05,57.78,3.42,35.28-22.38,66.67-57.66,70.15Z"/>
    <path class="cls-9" d="M900.68,396.74c1.85-33.82-16.52-28.12-41.75-37.69-3.28-8.41-5.91-13.77-10.02-21.73,4.95-7.27,11.21-16.55,14.72-24.48,7.54-17.02-12.6-33.78-24.16-43.65-4.94-3.32-9.99-6.8-15.09-9.87-14.29-7.75-24.99-1.82-28.7.87.13-.01.27-.03.4-.04l-5.54,3.62c-3.12,2.06-6.2,4.18-9.24,6.36-3.34-1.36-7.79-3.03-10.91-4.67-1.4-.22-7.09-2.74-8.57-3.37l-5.31-21.94c-6.83-21.16-18.55-20.12-42.33-19.67-21.19.39-40.06-2.33-45.12,21.68-1.02,15.27-3.44,19.6-3.44,19.6l-5.79,2.36c-5.22,2.18-12.59,4.24-18.04,5.85-3.93-1.93-11.75-7.26-16.33-10.23-.31-.2-.6-.39-.87-.56.02,0,.04,0,.06,0-8.87-5.84-16.67-2.58-19.75-.81-5.82,3.79-11.5,7.8-17.02,12.01-8.36,7.15-23.22,19.36-24.25,30.97-.8,9.07,9.34,26.59,14.35,34.4-3.54,7.63-6.86,15.35-9.97,23.17-5.63,2.21-11.39,4.07-17.25,5.58-5.75,2.63-17.94,3.94-19.76,10.97-4.2,16.16-4.49,42.65.27,58.45,3.03,10.07,27.7,12.73,36.85,16.03,3.21,6.97,7.15,15.16,10.01,22.18-5.5,12.92-15.31,24.05-13.66,37.95,5.63,9.39,13.22,16.98,21.56,24.69,10.78,9.96,27.06,26.74,42.96,16.34,2.75-1.8,6.44-4.75,9.17-6.26l8.33-6.39c5.84,2.44,13.23,5.03,18.66,7.49.41,2.78.86,5.56,1.36,8.32.36.7,1.3,4.89,1.59,5.93,1.92,7.07,3.09,14.17,7.14,20.37,2.77,4.23,9.23,6.91,13.93,7.55,11.14,1.53,43.17,2.84,52.78.66,2.78-.61,5.4-1.8,7.68-3.49,10.38-7.52,10.93-26.33,13.13-38.68l19.51-8.81c15.92,11.46,28.36,25.01,47.75,10.22,12.06-9.2,23.64-19.72,32.33-32.25,3.91-5.63,3.27-11.73,1.62-17.9-3.97-8.01-8.96-15.53-13.85-23.01,4.16-7.24,7.52-14.91,10.03-22.87,9.59-3.91,26.26-6.58,34.58-12.07.03-.07,1.96-2.7,2.21-3.11,2.35-3.9,2.64-5.87,3.18-10.15.81-10.06.03-20.56.55-29.93ZM881.64,426.94c-4.14,2.69-16.23,6.15-20.78,6.83-16.91,2.52-15.06,9.65-20.88,23.09-2.55,5.89-8.37,12.32-8.58,19.37l1.78,4.41c2.94,4.84,14.14,22.16,12.75,27-1.51,5.24-25.7,27.27-30.97,29.34-2.07.81-4.42.12-6.34-.82-7.31-3.59-19.46-18.17-27.21-15.66-5.58,1.81-10.83,5-16.21,7.35-3.72,1.63-11.56,3.88-14.55,6.08-1.2.88-2.05,1.98-2.67,3.33-3.28,7.18-1.83,31.35-9.8,34.37-5.21,1.97-42.72,1.18-48.13-1.34-.5-.23-.46-.22-.85-.47-5.29-5.95-5.8-29.4-8.36-35.19-4.44-3.48-11.23-4.95-16.57-7.13-3.73-1.52-15.28-8.14-18.74-7.28-9.76,2.45-19.57,16.38-29.86,17.47-7.04-4.09-25.62-22.65-31.11-29.37-6.65-9.63,16.12-30.03,10.25-39.88-4-6.72-10-26-14.17-31.04l-1.54-.73c-3.62-3.5-25.26-5.1-32.01-10.52-3.27-5.61-2.68-34.61-1.27-41.82,1.45-7.42,33.73-8.09,36.25-14.28,2.79-6.85,14.3-31.03,13.65-36.75-1.23-1.05-2.22-3.73-2.89-5.27-2.45-3.32-10.77-20.09-12.52-24.19,1.54-6.41,24.94-24.96,31.05-29.86,2.67-2.14,3.68-2.85,6.97-2.38,7.28,4.53,13.92,11.14,21.37,15.63,7.14,1.64,10.51-2.09,16.94-4.74,5.76-2.44,17.05-4.19,21.28-8.45,5.73-5.9,4.14-35.27,13.21-36.29,7.65-.86,39.24-2.73,44.8.65,3.75,7.31,5.13,16.97,7.17,24.95.87,3.39.75,7.7,3.38,10.04,6.24,3.19,28.87,13.19,35.78,13.96,6.77.76,24.25-19.78,32.69-15.25,7.11,3.81,27.45,22.93,32,29.56.15,13.77-15.88,23.95-15.08,35.62-.04-.56,15.02,33.33,15.56,34.06,7.32,4.62,26.77,6.87,34.94,12.35,2.89,6.55,2.24,36.59-.75,43.26Z"/>
    <path class="cls-24" d="M723.68,569.41c-11.89,0-26-.84-31.72-1.62-.11-.02-.25-.05-.41-.1-.92-2.12-1.65-5.04-2.47-8.31-.36-1.45-.74-2.96-1.17-4.54-.06-.24-.15-.6-.25-1.01-.45-1.83-.82-3.33-1.22-4.65-.35-1.99-.68-4.04-1-6.23-1.02-6.9-5.47-12.81-11.82-15.69-3.69-1.67-7.83-3.27-11.84-4.81-2.67-1.03-5.19-2-7.38-2.92-2.55-1.07-5.24-1.59-7.92-1.59-4.44,0-8.84,1.44-12.49,4.24l-7.33,5.62c-2.18,1.33-4.28,2.84-6.17,4.2-.9.65-1.82,1.31-2.49,1.77-.74-.22-2.38-.89-5.1-2.8-3.65-2.57-7.5-6.16-10.91-9.34-.71-.66-1.4-1.31-2.07-1.93-6.12-5.66-10.95-10.47-14.7-15.44.9-3.13,3.04-7.07,5.42-11.43,2.04-3.75,4.36-8.01,6.34-12.65,2.14-5.03,2.19-10.71.12-15.78-2.37-5.82-5.25-12.01-8.04-17.99-.8-1.72-1.59-3.41-2.33-5.03-2.3-5-6.51-8.87-11.69-10.73-3.42-1.23-7.42-2.18-11.65-3.19-3.42-.82-9.75-2.33-13.55-3.77-2.02-10.34-2.1-25.58-.23-37.15.49-.15.96-.29,1.36-.42,2.08-.63,4.22-1.28,6.37-2.13,6.16-1.65,12.25-3.65,18.13-5.96,5.29-2.07,9.48-6.24,11.57-11.52,2.96-7.45,6.17-14.89,9.52-22.11,2.96-6.37,2.45-13.82-1.35-19.73-6.27-9.75-9.94-17.98-10.92-21.58.55-1,1.82-2.94,4.65-5.94,3.47-3.69,7.74-7.33,11.16-10.25l.64-.54c4.35-3.3,8.84-6.5,13.38-9.51l.19.12c.97.63,2.09,1.37,3.29,2.16,6.38,4.2,11.2,7.32,15.11,9.25,2.84,1.4,5.94,2.11,9.05,2.11,1.95,0,3.9-.28,5.8-.84.69-.2,1.41-.41,2.16-.63,5.49-1.6,12.32-3.6,17.9-5.92l5.72-2.33c4.32-1.76,7.91-4.94,10.18-9.01,2.95-5.3,4.93-14.22,5.87-26.51.46-1.76.92-2.54,1.07-2.76.28-.14,1.35-.61,4.05-.95,3.58-.45,8.25-.46,13.19-.48,2.2,0,4.48-.01,6.84-.06l2.61-.05c2.89-.06,5.61-.11,8.03-.11,6.41,0,8.8.44,9.66.72.31.45,1.03,1.66,1.92,4.25l5.11,21.12c1.53,6.31,5.95,11.52,11.92,14.06.18.08.43.18.73.31,3.62,1.56,6.19,2.62,8.34,3.34,2.84,1.36,5.85,2.56,8.56,3.64.74.3,1.46.58,2.13.86,2.5,1.02,5.13,1.52,7.75,1.52,4.23,0,8.43-1.31,11.97-3.85,2.72-1.95,5.59-3.93,8.54-5.88l3.26-2.13c.07-.04.45-.3.51-.34l3.15-2.16c.51-.19,1.04-.29,1.57-.29,1.34,0,2.84.6,3.96,1.18,3.56,2.16,7.18,4.61,11.01,7.19.59.4,1.18.8,1.77,1.19,4.12,3.52,9.18,7.86,12.99,12.26,3.49,4.02,4.41,6.33,4.65,7.13-2.96,6.48-9.06,15.43-12.74,20.83-4.24,6.23-4.73,14.29-1.26,20.98,4.09,7.91,6.27,12.4,9.13,19.75,2.11,5.41,6.41,9.68,11.84,11.74,6.95,2.63,13.36,4.27,18.52,5.58,3.3.84,7.66,1.95,9.63,2.83.27,1.15.67,3.82.39,8.97-.26,4.81-.23,9.66-.2,14.35.03,5.13.06,9.98-.27,14.5-3.53,1.28-8.42,2.65-11.76,3.58-5.29,1.48-10.77,3-15.55,4.95-5.66,2.3-9.99,7.01-11.83,12.84-2.06,6.54-4.84,12.88-8.25,18.82-3.84,6.7-3.6,14.98.62,21.44l.74,1.13c4.01,6.12,7.82,11.94,10.89,17.79.02.1.03.18.05.27-6.24,8.64-15.11,17.3-27.07,26.42-2.46,1.88-3.86,2.29-4.07,2.29,0,0-.82-.03-3-1.23-2.87-1.58-6.38-4.23-10.08-7.04-1.96-1.48-3.99-3.02-6.16-4.58-3.55-2.55-7.75-3.86-11.98-3.86-2.86,0-5.74.6-8.44,1.82l-19.51,8.81c-6.17,2.79-10.57,8.43-11.76,15.1-.47,2.63-.86,5.39-1.23,8.06-.62,4.42-1.26,9-2.24,12.79-.75,2.93-1.44,4.35-1.78,4.92-.59.1-4.03.63-13.64.63ZM716.3,319.05c-2.69,0-5.42.13-8.11.39-22.57,2.15-42.94,12.96-57.37,30.45-14.43,17.49-21.17,39.55-18.98,62.12,4.23,43.68,40.48,76.61,84.31,76.61,2.78,0,5.6-.14,8.38-.41,46.45-4.58,80.57-46.09,76.07-92.54-4.23-43.68-40.47-76.61-84.3-76.61Z"/>
    <path class="cls-7" d="M804.86,355.82c-23.92-43.81-76.07-63.83-123.16-47.27-47.09,16.56-75.23,64.81-66.47,113.95,7.08,39.7,36.93,71.48,76.11,81.04,39.18,9.56,80.31-4.9,104.88-36.88,24.57-31.98,27.96-75.44,8.63-110.84ZM652.26,410.02c-3.42-35.37,22.5-66.8,57.87-70.16,35.29-3.36,66.63,22.5,70.05,57.78,3.42,35.28-22.38,66.67-57.66,70.15-35.36,3.48-66.84-22.39-70.26-57.76Z"/>
    <path class="cls-9" d="M797.81,397.19c-.9-4.27-1.04-7.7-2.28-12.47-4.69-18.05-12.28-28.97-25.33-41.64-12.28-10.18-21.04-14.2-36.01-18.83-19.38-3.33-30.18-2.75-48.87,3.95-34.39,16.59-48.4,37.18-51.26,74.97.56,10.42,1.2,18,4.87,27.94,13.15,35.59,45.92,55.79,83.55,53.33,2.58-.16,5.16-.43,7.72-.8,32.1-3.97,58.41-29.57,65.75-60.6,2.15-9.07,2.06-16.67,1.87-25.86ZM722.52,467.78c-35.36,3.48-66.84-22.39-70.26-57.76-3.42-35.37,22.5-66.8,57.87-70.16,35.29-3.36,66.63,22.5,70.05,57.78,3.42,35.28-22.38,66.67-57.66,70.15Z"/>
  </g>
  <g>
    <path class="cls-9" d="M354.2,740.22c-14.23-2-32.16-3.13-43.55,5.7l-2.28-44.69s-.85-15.94-19.92-15.94-28.46,1.98-32.16,8.53v170.21s9.68,35.85,79.41,37.28c48.1,0,75.72-26.46,79.98-71.44,3.7-42.13-12.23-82.82-61.47-89.66ZM340.34,860.14c-30.17,3.42-28.75-11.1-28.75-11.1v-58.15c0-4.36,8.83-11.87,23.06-11.29,25.33,1.13,25.33,31.01,25.33,31.01,0,0,5.97,46.11-19.64,49.52Z"/>
    <path class="cls-9" d="M436.45,767.54v118.4s3.98,11.39,13.95,11.67c9.96.28,29.03,0,29.03,0,0,0,9.68,1.99,9.68-9.96v-96.49s12.81-13.95,39.85-11.39c10.53.57,11.67-3.7,12.81-12.24s4.84-27.89-25.62-27.61c-30.45.28-56.87.65-79.69,27.61Z"/>
    <path class="cls-9" d="M669,856.92c-13.38,7.97-57.49,15.94-71.74-17.65,0,0,72.59-6.55,80.84-8.53,8.26-2,27.61-15.67,15.36-50.67-12.23-35.01-49.24-45.82-86.24-40.13-29.59,4.84-60.05,31.61-60.62,81.13-.56,49.52,29.32,74.85,76.56,81.11,35.58,3.98,68.03-10.25,68.59-28.46.57-18.22-9.39-24.77-22.76-16.8ZM618.32,778.36c17.93-2.84,26.48,5.41,32.45,21.35l-55.23,4.26s1.71-22.76,22.77-25.62Z"/>
    <path class="cls-9" d="M705.8,754.64l33.02,129.03s4.55,17.84,37.19,15.94c22.77-1.9,27.32-3.8,33.02-29.22,5.69-25.43,12.9-59.58,12.9-59.58l17.46,67.93s5.31,20.78,36.05,21.01c22.01.24,33.02-5.83,36.43-21.39,3.42-15.56,26.56-116.51,26.56-116.51,0,0-2.66-21.83-24.29-21.92-21.63-.09-25.81,8.64-28.46,29.13-2.66,20.49-13.28,81.59-13.28,81.59l-16.7-77.8s-4.93-24.29-30.74-24.29-31.5,14.8-36.43,34.91c-4.93,20.11-15.18,66.41-15.18,66.41l-12.52-82.73s-1.14-28.28-27.32-27.23c-17.46,1.81-24.67,2.19-27.7,14.71Z"/>
    <path class="cls-9" d="M1189.28,739.9s-54.27-2.34-63.38,46.24c-.76,22.39,9.87,40.23,47.44,48.96,36.43,8.73,24.29,7.21,24.29,7.21,0,0,20.87,9.11-.38,18.97-13.28,5.69-38.71-1.52-48.2-6.45s-12.9-4.17-16.32-.38-22.01,41.28,35.29,45.31c51.99,4.03,82.73-7.74,89.56-38.1,6.83-30.36-9.11-44.78-43.26-57.68-33.4-7.59-38.33-9.87-34.91-18.6,3.42-8.73,24.67-9.49,35.67-7.21,11.01,2.28,25.43,13.28,31.88,1.52,6.45-11.76,12.14-42.38-57.68-39.78Z"/>
    <path class="cls-9" d="M1029.36,739.75s-82.57-1.8-79.92,86.99c2.27,68.69,61.1,76.21,87.28,73.78,26.19-2.44,72.49-13.83,75.91-86.69-1.52-41.36-35.25-76.47-83.27-74.09ZM1029.52,860.52c-17.09-.38-22.39-11.39-26.94-36.81-4.18-40.98,26.94-44.03,26.94-44.03,20.87,1.53,25.81,13.29,26.94,43.26,1.13,29.99-14.04,37.96-26.94,37.58Z"/>
  </g>
  <g>
    <g>
      <path class="cls-9" d="M1537.45,1255.24c-4.42-28.5-34.37-47.56-62.19-42.56-3.21.58-6.47,1.68-9.7,2.34.43-5.62.41-11.88-.58-17.41-1.79-10.01-12.69-14.61-20.75-18.51-9.02-4.38-18.6-6.24-28.34-8.26-18.27-3.86-36.8-6.45-55.43-7.75-13.48-.87-31.76-1.64-45.2-1.25-14.09.2-28.17.86-42.22,2-17.02,1.64-33.93,4.31-50.64,7.99-14.2,3.19-30.32,7.02-41.21,17.4-6.27,5.97-4.87,14.04-5.52,21.84-1.4,17.87-1.66,36.16.22,54.01.79,7.49,1.34,14.93,2.36,22.38,5.97,41.72,21.84,84.23,52.51,114.09,3.47,3.38,7.68,7.01,11.75,9.65-8.14-.02-34.31,4.59-39.79,9.87-.9.86-1.41,1.9-1.39,3.15.02,1.46.72,2.7,1.78,3.68,11.17,10.34,82.36,14.14,99.22,14.54,20.78.54,41.58.2,62.33-1,10.17-.65,22.31-1.53,32.33-2.83,10.68-1.38,35.9-5.56,44-12.02.06-4.18-.38-5.8-4.51-7.59-10.74-4.65-25.11-7.8-36.75-7.82,13.15-10.55,26.43-24.34,34.55-39.23,35.2-6.69,67.64-22.71,88.3-53.07,12.94-19.01,18.44-40.61,14.86-63.64ZM1460.03,1305.42c3.21-14.14,4.48-28.72,6.65-43.04.51-3.39,4.06-5.94,6.81-7.6,3.69-2.14,7.77-3.53,12.04-3.68,4.56.18,10.51,3.74,12.56,7.89,4.09,8.28,3.06,17.03.07,25.51-2.96,8.17-9.01,17.3-15.24,23.46-4.26,4.21-12.48,10.51-17.69,12.95-3.59,1.65-7.15,3.38-10.66,5.2,2.56-6.39,3.94-13.94,5.47-20.69Z"/>
      <path class="cls-8" d="M1243.27,1396.42s50.14,52.9,142.53,10.66c27.64-19.35,74.22-58.17,71.07-192.54,0,0-85.51,41.04-216.47,16.71-50.03-7.36-48.45-7.36-48.45-7.36,0,0-.66,141.08,51.33,172.53Z"/>
      <path class="cls-3" d="M1428.28,1234.42s5.68,115.94-74.08,159.37c-20.92,14.21-57.64,24.61-110.94,2.63-16.98-19.21-47.66-58.28-49.89-138.83-1.04-27.25-1.44-33.7-1.44-33.7,0,0,63.01,17.74,132.53,15.07,28.89-1.12,40.78-1.02,58.55-4.43,0,0,21.19-.3,45.27-2.16l-.02,2.04Z"/>
      <path class="cls-20" d="M1428.28,1234.42s5.68,115.94-74.08,159.37c-20.92,14.21-57.64,24.61-110.94,2.63-16.98-19.21-47.66-58.28-49.89-138.83-1.04-27.25-1.44-33.7-1.44-33.7,0,0,63.01,17.74,132.53,15.07,28.89-1.12,40.78-1.02,58.55-4.43,0,0,21.19-.3,45.27-2.16l-.02,2.04Z"/>
      <path class="cls-12" d="M1186.68,1214.55s-10.27,123.18,56.59,181.88c0,0-49.35-50.54-46.59-168.58,0,0,26.45,13.42,68.7,15.4l14.61-6.32s-78.83-8.42-93.31-22.37Z"/>
      <path class="cls-17" d="M1457.01,1222.44s-28.98,21.55-73.98,12.09c0,0,46.59-6.83,73.83-19.99l.15,7.9Z"/>
      <path class="cls-16" d="M1223.18,1210.98s-15.92,6.51,18.29,11.12c34.22,4.61,94.28,7.66,141.1,1.79,46.83-5.87,50.77-9.95,52.62-12.91,1.84-2.96-76.33-22.91-132.13-18.07-55.8,4.84-79.88,18.07-79.88,18.07Z"/>
      <path class="cls-26" d="M1216.99,1207.23l5,8.95s-6.05,3.68,15.27,0c20.79-3.68,66.79-25.4,152.76-5.2,14.64,3.88,31.72,2.1-9.62-9.11-24.69-7.27-53.12-12.53-95.76-5.95-42.64,6.58-67.64,11.32-67.64,11.32Z"/>
      <path class="cls-9" d="M1202.25,1208.28s-1.58,4.74,19.74,7.9c6.05-3.95,66.27-29.04,180.56-11.32,26.58,5.26,30.8,9.69,30.8,9.69l9.35-4.6-8.29-14.82s-73.17-22.32-140.82-9.45c-67.64,12.87-88.44,7.34-91.33,22.61Z"/>
      <path class="cls-2" d="M1525.73,1283.82c-13.95,61.33-83.04,74.51-83.04,74.51l1.6-3.87,6.69-16.16c55.27-17.11,60.28-57.64,60.54-70.8-3.42-40.53-45.27-22.84-45.27-22.84v-17.54c56.85-16.43,62.91,33.01,59.48,56.7Z"/>
      <path class="cls-19" d="M1188.63,1198.74s6.61-21.96,116.27-25.07c72.64-2.57,121.8,8.09,136.6,16.19,13.03,6.91,20.73,11.05-.99,21.12-4.34-1.97-33.95-17.96-101.47-20.33-45.21-.2-91.79-1.78-133.84,20.33,0,0-16.78-3.36-16.58-12.24Z"/>
      <path class="cls-5" d="M1441.5,1189.86s-43.31-10.93-142.72-11.25c-89.95,5.33-110.15,20.14-110.15,20.14,0,0,2.08-14.41,61.35-22.11,43.28-4.15,51.95-5.22,105.65-2.61,41.07,2.22,71.27,7.35,85.88,15.84Z"/>
      <path class="cls-27" d="M1512.31,1298.56c-16.85,24.74-21.1,34.07-55.3,50.2-5.01,2.29-9.21,4.16-12.72,5.7l6.69-16.16c55.27-17.11,60.28-57.64,60.54-70.8-3.42-40.53-45.27-22.84-45.27-22.84v-10.16c4.6-3.19,13.16-6,28.69-3.32,12.11,2.89,39.48,22.37,17.37,67.38Z"/>
    </g>
    <path class="cls-15" d="M1396.01,1283.22c-1.71-4.39-3.08-7.19-5.23-11.34,2.58-3.79,5.85-8.64,7.68-12.78,3.93-8.88-6.58-17.63-12.61-22.78-2.58-1.73-5.21-3.55-7.87-5.15-6.11-3.31-10.95-1.83-13.57-.42l-.85.58-1.44.98-.07.05-1.73,1.13c-1.63,1.08-3.24,2.18-4.82,3.32-1.75-.71-4.07-1.58-5.7-2.44-.73-.12-3.7-1.43-4.47-1.76l-2.77-11.45c-3.57-11.05-9.68-10.5-22.09-10.27-11.06.2-20.91-1.22-23.55,11.31-.54,7.97-1.8,10.23-1.8,10.23l-3.02,1.23c-2.72,1.14-6.57,2.21-9.42,3.05-2.05-1.01-6.13-3.79-8.52-5.34-.16-.1-.31-.2-.46-.29.01,0,.02,0,.03,0-4.63-3.05-8.7-1.35-10.31-.42-3.04,1.98-6,4.07-8.88,6.27-4.36,3.73-12.12,10.11-12.65,16.17-.42,4.73,4.87,13.88,7.49,17.95-1.85,3.98-3.58,8.01-5.2,12.09-2.94,1.15-5.94,2.12-9,2.91-3,1.37-9.36,2.06-10.32,5.72-2.19,8.43-2.34,22.26.14,30.5,1.58,5.26,14.46,6.65,19.23,8.36,1.67,3.64,3.73,7.92,5.22,11.58-2.87,6.74-7.99,12.55-7.13,19.81,2.94,4.9,6.9,8.86,11.25,12.88,5.63,5.19,14.12,13.95,22.42,8.53,1.43-.94,3.36-2.48,4.79-3.27l4.35-3.33c3.05,1.28,6.91,2.63,9.74,3.91.21,1.45.45,2.9.71,4.34.19.37.68,2.55.83,3.09,1,3.69,1.61,7.4,3.73,10.63,1.44,2.21,4.81,3.6,7.27,3.94,5.81.8,22.53,1.48,27.55.34,1.45-.32,2.82-.94,4.01-1.82,5.41-3.92,5.7-13.74,6.85-20.19l10.18-4.6c8.31,5.98,14.8,13.06,24.92,5.33,6.29-4.8,12.34-10.29,16.88-16.83,2.04-2.94,1.71-6.12.85-9.34-2.07-4.18-4.67-8.11-7.23-12.01,2.17-3.78,3.92-7.78,5.23-11.94,5-2.04,13.71-3.43,18.05-6.3.01-.04,1.02-1.4,1.15-1.62,1.23-2.04,1.38-3.06,1.66-5.3.42-5.25.02-10.73.29-15.62.97-17.65-8.62-14.67-21.79-19.67ZM1324.82,1339.96c-18.45,1.82-34.88-11.69-36.67-30.14-1.79-18.46,11.74-34.86,30.2-36.62,18.42-1.75,34.77,11.74,36.56,30.15,1.78,18.41-11.68,34.79-30.09,36.61Z"/>
    <path class="cls-9" d="M1417.8,1302.89c.97-17.65-8.62-14.68-21.79-19.67-1.71-4.39-3.08-7.19-5.23-11.34,2.58-3.8,5.85-8.64,7.68-12.78,3.93-8.88-6.58-17.63-12.61-22.78-2.58-1.73-5.21-3.55-7.87-5.15-7.46-4.04-13.04-.95-14.98.46.07,0,.14-.02.21-.02l-2.89,1.89c-1.63,1.08-3.24,2.18-4.82,3.32-1.74-.71-4.07-1.58-5.69-2.44-.73-.12-3.7-1.43-4.47-1.76l-2.77-11.45c-3.57-11.05-9.68-10.5-22.09-10.27-11.06.21-20.91-1.22-23.55,11.31-.53,7.97-1.8,10.23-1.8,10.23l-3.02,1.23c-2.72,1.14-6.57,2.21-9.42,3.05-2.05-1.01-6.13-3.79-8.52-5.34-.16-.1-.31-.2-.45-.29.01,0,.02,0,.03,0-4.63-3.05-8.7-1.35-10.31-.42-3.04,1.98-6,4.07-8.88,6.27-4.36,3.73-12.12,10.11-12.66,16.16-.42,4.73,4.87,13.88,7.49,17.95-1.85,3.98-3.58,8.01-5.2,12.09-2.94,1.15-5.94,2.12-9,2.91-3,1.37-9.36,2.06-10.31,5.72-2.19,8.43-2.34,22.26.14,30.5,1.58,5.26,14.46,6.64,19.23,8.36,1.67,3.64,3.73,7.91,5.22,11.58-2.87,6.74-7.99,12.55-7.13,19.81,2.94,4.9,6.9,8.86,11.25,12.88,5.63,5.2,14.12,13.96,22.42,8.53,1.43-.94,3.36-2.48,4.79-3.27l4.35-3.34c3.05,1.28,6.91,2.62,9.74,3.91.21,1.45.45,2.9.71,4.34.19.36.68,2.55.83,3.1,1,3.69,1.61,7.4,3.73,10.63,1.44,2.21,4.81,3.61,7.27,3.94,5.81.8,22.53,1.48,27.55.34,1.45-.32,2.82-.94,4.01-1.82,5.41-3.93,5.7-13.74,6.85-20.19l10.18-4.6c8.31,5.98,14.8,13.06,24.92,5.33,6.29-4.8,12.34-10.29,16.87-16.83,2.04-2.94,1.71-6.12.85-9.34-2.07-4.18-4.68-8.11-7.23-12.01,2.17-3.78,3.92-7.78,5.23-11.94,5-2.04,13.71-3.43,18.05-6.3.02-.04,1.02-1.41,1.15-1.62,1.23-2.04,1.38-3.06,1.66-5.3.42-5.25.02-10.73.29-15.62ZM1407.86,1318.65c-2.16,1.4-8.47,3.21-10.84,3.56-8.82,1.31-7.86,5.04-10.9,12.05-1.33,3.08-4.37,6.43-4.48,10.11l.93,2.3c1.53,2.53,7.38,11.56,6.65,14.09-.79,2.73-13.41,14.23-16.16,15.31-1.08.42-2.31.06-3.31-.43-3.82-1.88-10.16-9.48-14.2-8.17-2.91.94-5.65,2.61-8.46,3.84-1.94.85-6.04,2.03-7.6,3.17-.63.46-1.07,1.03-1.39,1.74-1.71,3.75-.96,16.36-5.11,17.94-2.72,1.03-22.3.62-25.12-.7-.26-.12-.24-.11-.44-.24-2.76-3.11-3.03-15.35-4.36-18.36-2.32-1.82-5.86-2.58-8.65-3.72-1.94-.79-7.98-4.25-9.78-3.8-5.09,1.28-10.21,8.55-15.58,9.12-3.67-2.14-13.37-11.82-16.23-15.33-3.47-5.03,8.41-15.67,5.35-20.81-2.09-3.5-5.22-13.57-7.4-16.2l-.8-.38c-1.89-1.82-13.18-2.66-16.71-5.49-1.7-2.93-1.4-18.06-.66-21.83.76-3.87,17.6-4.22,18.92-7.45,1.46-3.57,7.46-16.19,7.12-19.18-.64-.55-1.16-1.94-1.51-2.75-1.28-1.73-5.62-10.49-6.53-12.63.81-3.34,13.01-13.03,16.2-15.58,1.39-1.12,1.92-1.49,3.64-1.24,3.8,2.36,7.26,5.82,11.15,8.16,3.73.85,5.48-1.09,8.84-2.47,3-1.27,8.9-2.19,11.11-4.41,2.99-3.08,2.16-18.41,6.89-18.94,3.99-.45,20.48-1.43,23.38.34,1.96,3.81,2.68,8.86,3.74,13.02.45,1.77.39,4.02,1.77,5.24,3.25,1.66,15.06,6.88,18.67,7.28,3.53.4,12.65-10.32,17.06-7.96,3.71,1.99,14.32,11.97,16.7,15.42.08,7.19-8.29,12.5-7.87,18.59-.02-.29,7.84,17.39,8.12,17.77,3.82,2.41,13.97,3.59,18.23,6.44,1.51,3.42,1.17,19.1-.39,22.58Z"/>
    <path class="cls-21" d="M1325.42,1393c-6.21,0-13.57-.44-16.56-.85-.06,0-.13-.03-.21-.05-.48-1.11-.86-2.63-1.29-4.34-.19-.76-.39-1.54-.61-2.37-.03-.13-.08-.31-.13-.53-.23-.96-.43-1.74-.63-2.43-.18-1.04-.35-2.11-.52-3.25-.53-3.6-2.86-6.69-6.17-8.19-1.92-.87-4.09-1.71-6.18-2.51-1.39-.54-2.71-1.05-3.85-1.52-1.33-.56-2.74-.83-4.13-.83-2.32,0-4.62.75-6.52,2.21l-3.82,2.93c-1.14.69-2.23,1.48-3.22,2.19-.47.34-.95.69-1.3.92-.38-.12-1.24-.46-2.66-1.46-1.9-1.34-3.92-3.22-5.69-4.87-.37-.35-.73-.68-1.08-1-3.2-2.95-5.71-5.46-7.67-8.06.47-1.63,1.59-3.69,2.83-5.97,1.07-1.96,2.27-4.18,3.31-6.6,1.12-2.63,1.14-5.59.06-8.23-1.24-3.04-2.74-6.27-4.2-9.39-.42-.9-.83-1.78-1.22-2.63-1.2-2.61-3.4-4.63-6.1-5.6-1.78-.64-3.87-1.14-6.08-1.67-1.79-.43-5.09-1.21-7.07-1.97-1.05-5.39-1.09-13.35-.12-19.39.26-.08.5-.15.71-.22,1.09-.33,2.2-.67,3.33-1.11,3.21-.86,6.39-1.9,9.46-3.11,2.76-1.08,4.94-3.26,6.04-6.01,1.55-3.89,3.22-7.77,4.97-11.54,1.54-3.33,1.28-7.21-.7-10.3-3.27-5.09-5.19-9.39-5.7-11.26.29-.52.95-1.53,2.42-3.1,1.81-1.93,4.04-3.83,5.82-5.35l.33-.28c2.27-1.72,4.61-3.39,6.98-4.96l.1.06c.51.33,1.09.71,1.72,1.12,3.33,2.19,5.85,3.82,7.89,4.83,1.48.73,3.1,1.1,4.73,1.1,1.02,0,2.04-.14,3.03-.44.36-.11.74-.22,1.12-.33,2.87-.84,6.43-1.88,9.34-3.09l2.99-1.22c2.25-.92,4.13-2.58,5.31-4.7,1.54-2.77,2.57-7.42,3.06-13.83.24-.92.48-1.32.56-1.44.14-.07.71-.32,2.11-.49,1.87-.23,4.31-.24,6.88-.25,1.15,0,2.34,0,3.57-.03l1.36-.03c1.51-.03,2.93-.06,4.19-.06,3.35,0,4.59.23,5.04.38.16.23.54.86,1,2.22l2.67,11.02c.8,3.29,3.1,6.01,6.22,7.34.09.04.22.1.38.16,1.89.81,3.23,1.37,4.35,1.75,1.48.71,3.05,1.34,4.47,1.9.39.15.76.3,1.11.45,1.3.53,2.68.79,4.04.79,2.21,0,4.4-.68,6.25-2.01,1.42-1.02,2.92-2.05,4.46-3.07l1.7-1.11s.23-.16.27-.18l1.65-1.13c.27-.1.54-.15.82-.15.7,0,1.48.32,2.07.62,1.86,1.13,3.75,2.41,5.74,3.75.31.21.62.42.92.62,2.15,1.84,4.79,4.1,6.78,6.4,1.82,2.1,2.3,3.3,2.43,3.72-1.54,3.38-4.73,8.05-6.65,10.87-2.21,3.25-2.47,7.46-.66,10.95,2.14,4.13,3.27,6.47,4.76,10.31,1.1,2.82,3.35,5.05,6.18,6.13,3.63,1.37,6.97,2.23,9.66,2.91,1.72.44,4,1.02,5.03,1.48.14.6.35,1.99.2,4.68-.14,2.51-.12,5.04-.11,7.49.02,2.68.03,5.21-.14,7.57-1.84.67-4.39,1.38-6.14,1.87-2.76.77-5.62,1.57-8.11,2.58-2.95,1.2-5.22,3.66-6.17,6.7-1.08,3.42-2.52,6.72-4.31,9.82-2.01,3.49-1.88,7.82.33,11.19l.39.59c2.09,3.2,4.08,6.23,5.68,9.29,0,.05.02.1.03.14-3.26,4.51-7.89,9.03-14.13,13.79-1.29.98-2.01,1.19-2.12,1.19,0,0-.43-.02-1.57-.64-1.5-.83-3.33-2.21-5.26-3.67-1.02-.77-2.08-1.58-3.21-2.39-1.85-1.33-4.05-2.02-6.25-2.02-1.49,0-3,.31-4.4.95l-10.18,4.6c-3.22,1.45-5.52,4.4-6.14,7.88-.24,1.37-.45,2.81-.64,4.21-.32,2.31-.66,4.7-1.17,6.68-.39,1.53-.75,2.27-.93,2.57-.31.05-2.1.33-7.12.33ZM1321.57,1262.34c-1.4,0-2.83.07-4.23.2-11.78,1.12-22.41,6.76-29.94,15.89-7.53,9.13-11.05,20.64-9.91,32.42,2.21,22.8,21.13,39.98,44,39.98,1.45,0,2.92-.07,4.37-.22,24.24-2.39,42.05-24.05,39.7-48.3-2.21-22.79-21.12-39.98-44-39.98Z"/>
    <path class="cls-29" d="M1367.79,1281.53c-12.48-22.87-39.7-33.31-64.27-24.67-24.57,8.64-39.26,33.82-34.69,59.47,3.7,20.72,19.27,37.3,39.72,42.29,20.45,4.99,41.91-2.56,54.74-19.25,12.82-16.69,14.59-39.37,4.51-57.84ZM1288.15,1309.82c-1.79-18.46,11.74-34.86,30.2-36.62,18.42-1.75,34.77,11.74,36.56,30.15,1.78,18.41-11.68,34.79-30.09,36.61-18.45,1.82-34.88-11.69-36.67-30.14Z"/>
    <path class="cls-9" d="M1364.11,1303.12c-.47-2.23-.54-4.02-1.19-6.51-2.45-9.42-6.41-15.12-13.22-21.73-6.41-5.31-10.98-7.41-18.79-9.83-10.12-1.74-15.75-1.44-25.51,2.06-17.95,8.66-25.26,19.4-26.75,39.13.29,5.44.63,9.39,2.54,14.58,6.86,18.57,23.96,29.11,43.6,27.83,1.35-.08,2.69-.22,4.03-.42,16.75-2.07,30.49-15.43,34.32-31.63,1.12-4.73,1.08-8.7.98-13.5ZM1324.82,1339.96c-18.45,1.82-34.88-11.69-36.67-30.14-1.79-18.46,11.74-34.86,30.2-36.62,18.42-1.75,34.77,11.74,36.56,30.15,1.78,18.41-11.68,34.79-30.09,36.61Z"/>
  </g>
</svg>