<?xml version="1.0" encoding="UTF-8"?>
<svg id="Layer_1" xmlns="http://www.w3.org/2000/svg" version="1.1" viewBox="0 0 1080 250">
  <!-- Generator: Adobe Illustrator 30.0.0, SVG Export Plug-In . SVG Version: 2.1.1 Build 123)  -->
  <defs>
    <style>
      .st0 {
        fill: #361e12;
      }
    </style>
  </defs>
  <path class="st0" d="M140.21,71.64c-14.1-1.98-31.87-3.1-43.15,5.65l-2.26-44.27s-.84-15.79-19.73-15.79-28.2,1.96-31.87,8.45v168.64s9.59,35.52,78.67,36.93c47.66,0,75.02-26.22,79.24-70.78,3.67-41.74-12.12-82.06-60.9-88.83ZM126.48,190.46c-29.89,3.39-28.48-11-28.48-11v-57.61c0-4.32,8.75-11.76,22.85-11.19,25.1,1.12,25.1,30.73,25.1,30.73,0,0,5.92,45.68-19.46,49.07Z"/>
  <path class="st0" d="M221.7,98.72v117.31s3.95,11.28,13.82,11.56c9.87.28,28.76,0,28.76,0,0,0,9.59,1.97,9.59-9.87v-95.6s12.69-13.82,39.48-11.28c10.43.56,11.56-3.67,12.69-12.13,1.13-8.46,4.79-27.64-25.38-27.35-30.17.28-56.35.64-78.96,27.35Z"/>
  <path class="st0" d="M452.1,187.26c-13.26,7.9-56.96,15.79-71.08-17.48,0,0,71.92-6.49,80.1-8.45,8.18-1.98,27.36-15.52,15.22-50.21-12.12-34.68-48.78-45.4-85.44-39.76-29.32,4.79-59.49,31.31-60.06,80.38-.55,49.07,29.05,74.16,75.86,80.37,35.25,3.94,67.41-10.16,67.96-28.2.57-18.05-9.3-24.54-22.55-16.65ZM401.89,109.43c17.77-2.82,26.23,5.36,32.15,21.16l-54.72,4.22s1.69-22.55,22.56-25.38Z"/>
  <path class="st0" d="M488.56,85.94l32.71,127.84s4.51,17.67,36.85,15.79c22.56-1.88,27.07-3.76,32.71-28.95,5.64-25.19,12.78-59.03,12.78-59.03l17.3,67.3s5.26,20.58,35.72,20.82c21.81.24,32.71-5.78,36.1-21.2,3.38-15.42,26.32-115.43,26.32-115.43,0,0-2.63-21.63-24.06-21.72-21.43-.09-25.57,8.56-28.2,28.86-2.63,20.3-13.16,80.84-13.16,80.84l-16.54-77.08s-4.89-24.06-30.46-24.06-31.21,14.66-36.1,34.59c-4.89,19.93-15.04,65.8-15.04,65.8l-12.41-81.97s-1.13-28.02-27.07-26.98c-17.3,1.79-24.44,2.17-27.45,14.57Z"/>
  <path class="st0" d="M967.58,71.33s-53.77-2.32-62.79,45.81c-.75,22.18,9.78,39.86,47,48.5,36.1,8.65,24.06,7.14,24.06,7.14,0,0,20.68,9.02-.38,18.8-13.16,5.64-38.35-1.5-47.75-6.39-9.4-4.89-12.78-4.14-16.17-.38-3.38,3.76-21.81,40.9,34.97,44.89,51.51,3.99,81.97-7.67,88.73-37.75,6.77-30.08-9.02-44.37-42.86-57.15-33.09-7.52-37.98-9.78-34.59-18.42,3.38-8.65,24.44-9.4,35.34-7.14,10.9,2.26,25.19,13.16,31.58,1.5,6.39-11.66,12.03-41.99-57.15-39.42Z"/>
  <path class="st0" d="M809.13,71.19s-81.81-1.79-79.18,86.19c2.25,68.06,60.54,75.51,86.47,73.1,25.95-2.42,71.82-13.7,75.21-85.89-1.5-40.98-34.92-75.76-82.5-73.4ZM809.29,190.84c-16.93-.38-22.18-11.28-26.69-36.47-4.15-40.6,26.69-43.62,26.69-43.62,20.68,1.52,25.57,13.16,26.69,42.86,1.12,29.72-13.91,37.61-26.69,37.23Z"/>
</svg>