<?xml version="1.0" encoding="UTF-8"?>
<svg id="Layer_1" xmlns="http://www.w3.org/2000/svg" version="1.1" xmlns:xlink="http://www.w3.org/1999/xlink" viewBox="0 0 2000 2000">
  <!-- Generator: Adobe Illustrator 30.0.0, SVG Export Plug-In . SVG Version: 2.1.1 Build 123)  -->
  <defs>
    <style>
      .st0 {
        fill: #f1f3f3;
      }

      .st1 {
        fill: url(#linear-gradient2);
      }

      .st2 {
        fill: #361e12;
      }

      .st3 {
        fill: #9b6e46;
      }

      .st4 {
        fill: url(#linear-gradient1);
      }

      .st5 {
        fill: #fbfcf8;
      }

      .st6 {
        fill: #bbb9b5;
      }

      .st7 {
        fill: url(#linear-gradient4);
      }

      .st8 {
        fill: url(#linear-gradient5);
      }

      .st9 {
        fill: url(#linear-gradient3);
      }

      .st10 {
        fill: #714c30;
      }

      .st11 {
        fill: #d5a071;
      }

      .st12 {
        fill: url(#linear-gradient);
      }

      .st13 {
        fill: #7c4c2c;
      }

      .st14 {
        fill: #a97248;
      }
    </style>
    <linearGradient id="linear-gradient" x1="107.88" y1="1022.92" x2="487.18" y2="1022.92" gradientUnits="userSpaceOnUse">
      <stop offset="0" stop-color="#ac7b50"/>
      <stop offset=".47" stop-color="#b38458"/>
      <stop offset="1" stop-color="#986732"/>
    </linearGradient>
    <linearGradient id="linear-gradient1" x1="102.7" y1="883.34" x2="440.49" y2="1078.36" gradientUnits="userSpaceOnUse">
      <stop offset="0" stop-color="#ba8456"/>
      <stop offset=".22" stop-color="#c38f5f"/>
      <stop offset=".49" stop-color="#bc875b"/>
      <stop offset=".74" stop-color="#a06b3d"/>
      <stop offset="1" stop-color="#a2693c"/>
    </linearGradient>
    <linearGradient id="linear-gradient2" x1="621.31" y1="886.9" x2="505.56" y2="1087.39" gradientUnits="userSpaceOnUse">
      <stop offset="0" stop-color="#e6e4e5"/>
      <stop offset="1" stop-color="#afb0ab"/>
    </linearGradient>
    <linearGradient id="linear-gradient3" x1="594.56" y1="1040.73" x2="518.18" y2="908.44" gradientUnits="userSpaceOnUse">
      <stop offset="0" stop-color="#80807f"/>
      <stop offset="1" stop-color="#bababb"/>
    </linearGradient>
    <linearGradient id="linear-gradient4" x1="195.76" y1="939.26" x2="432.54" y2="1075.97" gradientUnits="userSpaceOnUse">
      <stop offset="0" stop-color="#fff"/>
      <stop offset="1" stop-color="#8b8c86"/>
    </linearGradient>
    <linearGradient id="linear-gradient5" x1="241.32" y1="965.05" x2="388.99" y2="1050.31" gradientUnits="userSpaceOnUse">
      <stop offset=".26" stop-color="#8c8b87"/>
      <stop offset="1" stop-color="#eff1ee"/>
    </linearGradient>
  </defs>
  <g>
    <g>
      <path class="st2" d="M662.17,924.65c-7.1-45.72-55.14-76.3-99.77-68.28-5.15.93-10.38,2.7-15.56,3.76.7-9.02.66-19.05-.93-27.93-2.87-16.06-20.36-23.43-33.28-29.7-14.48-7.03-29.84-10.01-45.46-13.25-29.32-6.19-59.03-10.35-88.93-12.43-21.62-1.39-50.95-2.62-72.51-2-22.61.31-45.2,1.39-67.73,3.21-27.31,2.63-54.44,6.91-81.24,12.81-22.77,5.12-48.64,11.26-66.11,27.91-10.06,9.58-7.81,22.52-8.85,35.04-2.24,28.68-2.66,58.01.35,86.64,1.26,12.01,2.15,23.95,3.79,35.9,9.57,66.92,35.04,135.12,84.25,183.03,5.57,5.43,12.32,11.25,18.84,15.47-13.06-.04-55.04,7.37-63.83,15.83-1.44,1.38-2.27,3.04-2.24,5.05.04,2.34,1.16,4.34,2.85,5.9,17.92,16.59,132.12,22.68,159.18,23.32,33.34.86,66.7.32,99.99-1.6,16.32-1.04,35.79-2.45,51.86-4.55,17.13-2.21,57.59-8.91,70.59-19.28.1-6.71-.61-9.3-7.24-12.17-17.23-7.45-40.28-12.51-58.95-12.54,21.1-16.92,42.41-39.05,55.43-62.93,56.47-10.72,108.51-36.43,141.65-85.14,20.75-30.5,29.58-65.15,23.84-102.1ZM537.96,1005.16c5.15-22.68,7.19-46.08,10.67-69.04.82-5.44,6.51-9.52,10.92-12.19,5.93-3.44,12.46-5.66,19.31-5.9,7.32.29,16.87,6,20.16,12.66,6.56,13.28,4.91,27.33.11,40.93-4.75,13.11-14.45,27.76-24.45,37.64-6.83,6.75-20.02,16.85-28.38,20.77-5.77,2.65-11.47,5.43-17.11,8.34,4.1-10.26,6.32-22.36,8.78-33.2Z"/>
      <path class="st13" d="M190.22,1151.14s80.44,84.87,228.65,17.1c44.34-31.04,119.07-93.32,114.01-308.88,0,0-137.18,65.85-347.27,26.8-80.25-11.81-77.72-11.81-77.72-11.81,0,0-1.06,226.33,82.34,276.79Z"/>
      <path class="st12" d="M487.04,891.24s9.11,186.01-118.84,255.68c-33.57,22.8-92.47,39.48-177.98,4.22-27.24-30.82-76.47-93.49-80.04-222.72-1.67-43.72-2.3-54.07-2.3-54.07,0,0,101.09,28.46,212.62,24.18,46.35-1.8,65.43-1.64,93.93-7.1,0,0,34-.48,72.63-3.46l-.03,3.27Z"/>
      <path class="st4" d="M487.04,891.24s9.11,186.01-118.84,255.68c-33.57,22.8-92.47,39.48-177.98,4.22-27.24-30.82-76.47-93.49-80.04-222.72-1.67-43.72-2.3-54.07-2.3-54.07,0,0,101.09,28.46,212.62,24.18,46.35-1.8,65.43-1.64,93.93-7.1,0,0,34-.48,72.63-3.46l-.03,3.27Z"/>
      <path class="st11" d="M99.44,859.37s-16.47,197.61,90.78,291.78c0,0-79.17-81.07-74.74-270.45,0,0,42.44,21.53,110.21,24.7l23.44-10.13s-126.46-13.51-149.69-35.89Z"/>
      <path class="st14" d="M533.12,872.04s-46.49,34.57-118.69,19.4c0,0,74.74-10.95,118.45-32.06l.24,12.67Z"/>
      <path class="st10" d="M157.99,853.65s-25.55,10.44,29.35,17.84c54.89,7.39,151.25,12.29,226.37,2.88,75.12-9.42,81.45-15.96,84.41-20.71,2.96-4.75-122.45-36.76-211.97-28.99-89.52,7.77-128.15,28.99-128.15,28.99Z"/>
      <path class="st3" d="M148.07,847.63l8.02,14.36s-9.71,5.91,24.49,0c33.36-5.91,107.15-40.75,245.07-8.34,23.49,6.23,50.88,3.37-15.44-14.62-39.61-11.66-85.22-20.11-153.62-9.55-68.4,10.56-108.52,18.16-108.52,18.16Z"/>
      <path class="st2" d="M124.42,849.32s-2.53,7.6,31.67,12.67c9.71-6.33,106.32-46.59,289.66-18.16,42.65,8.45,49.4,15.54,49.4,15.54l14.99-7.38-13.3-23.78s-117.39-35.8-225.9-15.16c-108.52,20.65-141.88,11.78-146.52,36.27Z"/>
      <path class="st1" d="M643.37,970.51c-22.38,98.38-133.22,119.54-133.22,119.54l2.57-6.21,10.73-25.92c88.67-27.45,96.7-92.47,97.12-113.59-5.49-65.03-72.62-36.65-72.62-36.65v-28.13c91.21-26.36,100.92,52.96,95.43,90.96Z"/>
      <path class="st6" d="M102.57,834.01s10.6-35.23,186.53-40.22c116.54-4.12,195.4,12.98,219.15,25.97,20.9,11.08,33.25,17.73-1.58,33.89-6.97-3.17-54.47-28.82-162.78-32.62-72.52-.32-147.26-2.85-214.71,32.62,0,0-26.92-5.38-26.6-19.63Z"/>
      <path class="st5" d="M508.25,819.76s-69.48-17.54-228.97-18.05c-144.3,8.55-176.71,32.3-176.71,32.3,0,0,3.34-23.12,98.42-35.47,69.43-6.65,83.34-8.37,169.49-4.19,65.88,3.55,114.34,11.79,137.77,25.41Z"/>
      <path class="st9" d="M621.83,994.15c-27.02,39.69-33.85,54.66-88.71,80.54-8.04,3.68-14.77,6.68-20.4,9.14l10.73-25.92c88.67-27.45,96.7-92.47,97.12-113.59-5.49-65.03-72.62-36.65-72.62-36.65v-16.3c7.39-5.11,21.12-9.62,46.02-5.32,19.43,4.64,63.34,35.89,27.87,108.1Z"/>
    </g>
    <path class="st0" d="M435.26,969.54c-2.74-7.04-4.95-11.53-8.39-18.19,4.15-6.09,9.39-13.86,12.33-20.5,6.31-14.25-10.55-28.28-20.22-36.55-4.14-2.78-8.36-5.7-12.63-8.27-9.8-5.31-17.57-2.94-21.78-.67l-1.36.93-2.3,1.58-.12.08-2.78,1.81c-2.61,1.73-5.19,3.5-7.74,5.32-2.8-1.14-6.52-2.54-9.14-3.91-1.18-.19-5.94-2.3-7.18-2.82l-4.44-18.37c-5.72-17.72-15.53-16.84-35.44-16.47-17.74.33-33.54-1.95-37.78,18.15-.86,12.78-2.88,16.41-2.88,16.41l-4.85,1.98c-4.37,1.82-10.53,3.54-15.1,4.89-3.29-1.62-9.83-6.08-13.67-8.56-.26-.17-.5-.32-.73-.47.02,0,.04,0,.05,0-7.42-4.89-13.96-2.16-16.54-.68-4.87,3.17-9.63,6.53-14.25,10.06-7,5.99-19.44,16.21-20.3,25.94-.68,7.59,7.82,22.27,12.02,28.8-2.96,6.39-5.75,12.86-8.35,19.4-4.71,1.85-9.54,3.41-14.44,4.67-4.81,2.2-15.02,3.3-16.55,9.18-3.52,13.53-3.76,35.71.23,48.94,2.54,8.43,23.2,10.66,30.85,13.42,2.69,5.84,5.99,12.7,8.38,18.57-4.61,10.82-12.82,20.14-11.44,31.78,4.71,7.86,11.07,14.22,18.05,20.67,9.03,8.33,22.65,22.39,35.97,13.68,2.3-1.5,5.4-3.97,7.68-5.24l6.97-5.35c4.89,2.05,11.08,4.21,15.63,6.27.34,2.33.72,4.65,1.14,6.97.3.59,1.1,4.1,1.33,4.96,1.61,5.92,2.59,11.86,5.98,17.06,2.32,3.54,7.72,5.78,11.67,6.32,9.33,1.28,36.15,2.38,44.19.55,2.33-.51,4.52-1.51,6.44-2.92,8.68-6.3,9.15-22.05,10.99-32.38l16.33-7.37c13.33,9.59,23.74,20.94,39.97,8.56,10.09-7.7,19.79-16.51,27.07-27,3.27-4.71,2.74-9.82,1.36-14.99-3.32-6.71-7.5-13-11.59-19.26,3.48-6.06,6.29-12.48,8.39-19.15,8.03-3.27,21.99-5.51,28.96-10.1.02-.06,1.63-2.25,1.84-2.6,1.97-3.27,2.21-4.91,2.67-8.5.68-8.43.03-17.22.46-25.06,1.55-28.31-13.83-23.54-34.96-31.55ZM321.05,1060.57c-29.6,2.91-55.96-18.75-58.83-48.36-2.87-29.61,18.84-55.93,48.46-58.74,29.55-2.81,55.79,18.83,58.65,48.38,2.86,29.54-18.74,55.82-48.28,58.73Z"/>
    <path class="st2" d="M470.21,1001.09c1.55-28.32-13.83-23.54-34.96-31.55-2.75-7.04-4.95-11.53-8.39-18.19,4.14-6.09,9.38-13.86,12.33-20.5,6.31-14.25-10.55-28.28-20.23-36.55-4.14-2.78-8.36-5.7-12.63-8.27-11.97-6.49-20.92-1.52-24.03.73.11-.01.22-.02.33-.04l-4.64,3.03c-2.61,1.72-5.19,3.5-7.74,5.32-2.8-1.14-6.52-2.54-9.14-3.91-1.18-.19-5.94-2.29-7.18-2.82l-4.44-18.37c-5.72-17.72-15.53-16.84-35.44-16.47-17.74.33-33.54-1.95-37.78,18.15-.86,12.78-2.88,16.41-2.88,16.41l-4.85,1.98c-4.37,1.83-10.54,3.55-15.11,4.89-3.29-1.62-9.83-6.08-13.67-8.56-.26-.17-.5-.32-.73-.47h.05c-7.42-4.89-13.96-2.16-16.54-.67-4.87,3.17-9.63,6.53-14.25,10.06-7,5.99-19.44,16.21-20.3,25.93-.67,7.59,7.82,22.27,12.02,28.8-2.96,6.39-5.75,12.85-8.35,19.4-4.71,1.85-9.54,3.41-14.44,4.67-4.81,2.2-15.02,3.3-16.55,9.18-3.52,13.53-3.76,35.71.22,48.94,2.54,8.43,23.2,10.66,30.85,13.42,2.68,5.84,5.99,12.7,8.38,18.57-4.61,10.82-12.82,20.14-11.44,31.78,4.71,7.86,11.07,14.22,18.05,20.67,9.03,8.33,22.65,22.39,35.97,13.68,2.3-1.5,5.39-3.98,7.68-5.24l6.98-5.35c4.89,2.05,11.08,4.21,15.62,6.27.34,2.33.72,4.65,1.14,6.97.3.59,1.09,4.09,1.33,4.97,1.61,5.92,2.59,11.86,5.98,17.06,2.32,3.54,7.72,5.78,11.67,6.32,9.32,1.28,36.14,2.38,44.19.55,2.33-.51,4.52-1.51,6.43-2.92,8.69-6.3,9.15-22.05,10.99-32.38l16.33-7.37c13.33,9.59,23.74,20.94,39.98,8.56,10.09-7.7,19.79-16.51,27.07-27,3.27-4.71,2.74-9.82,1.36-14.99-3.33-6.71-7.5-13-11.59-19.26,3.48-6.06,6.29-12.48,8.39-19.15,8.03-3.27,21.99-5.51,28.96-10.1.03-.06,1.64-2.26,1.85-2.6,1.97-3.27,2.21-4.91,2.67-8.5.68-8.43.03-17.22.46-25.06ZM454.27,1026.37c-3.47,2.25-13.59,5.15-17.39,5.72-14.16,2.11-12.61,8.08-17.48,19.33-2.14,4.93-7.01,10.31-7.19,16.22l1.49,3.69c2.46,4.06,11.84,18.55,10.67,22.6-1.26,4.38-21.52,22.83-25.93,24.57-1.73.68-3.7.1-5.3-.69-6.12-3.01-16.3-15.21-22.78-13.11-4.67,1.52-9.07,4.19-13.57,6.16-3.12,1.36-9.68,3.25-12.19,5.09-1,.74-1.72,1.65-2.24,2.78-2.75,6.01-1.54,26.25-8.21,28.78-4.36,1.65-35.77.99-40.3-1.12-.42-.2-.38-.18-.71-.39-4.43-4.98-4.85-24.62-7-29.46-3.71-2.92-9.4-4.14-13.87-5.97-3.12-1.27-12.79-6.82-15.69-6.09-8.17,2.05-16.38,13.72-25,14.63-5.89-3.43-21.45-18.96-26.04-24.59-5.57-8.07,13.5-25.14,8.58-33.39-3.35-5.62-8.37-21.77-11.87-25.99l-1.29-.61c-3.03-2.93-21.15-4.27-26.8-8.81-2.74-4.69-2.24-28.98-1.06-35.01,1.22-6.21,28.24-6.78,30.35-11.95,2.34-5.73,11.97-25.98,11.43-30.77-1.03-.88-1.86-3.12-2.42-4.41-2.05-2.78-9.01-16.82-10.48-20.26,1.29-5.36,20.88-20.9,25.99-25,2.24-1.79,3.08-2.39,5.83-2,6.09,3.79,11.65,9.33,17.89,13.09,5.98,1.37,8.8-1.75,14.19-3.97,4.82-2.04,14.27-3.51,17.82-7.08,4.8-4.94,3.46-29.53,11.06-30.38,6.41-.72,32.85-2.29,37.51.55,3.14,6.12,4.29,14.21,6,20.89.73,2.84.63,6.45,2.83,8.41,5.22,2.67,24.17,11.04,29.95,11.69,5.67.63,20.3-16.56,27.37-12.77,5.95,3.19,22.98,19.2,26.79,24.74.13,11.53-13.29,20.05-12.62,29.82-.03-.47,12.57,27.91,13.02,28.51,6.13,3.87,22.42,5.75,29.25,10.34,2.42,5.48,1.88,30.64-.63,36.22Z"/>
    <path class="st7" d="M322.02,1145.66c-9.95,0-21.77-.7-26.56-1.36-.09-.01-.21-.05-.34-.09-.77-1.78-1.38-4.22-2.07-6.96-.3-1.22-.62-2.48-.98-3.8-.05-.2-.12-.5-.21-.85-.37-1.53-.69-2.79-1.02-3.9-.29-1.66-.57-3.38-.84-5.21-.85-5.78-4.58-10.73-9.9-13.14-3.09-1.4-6.56-2.74-9.91-4.03-2.24-.86-4.35-1.68-6.18-2.44-2.14-.89-4.39-1.33-6.63-1.33-3.72,0-7.41,1.21-10.46,3.55l-6.13,4.7c-1.83,1.11-3.58,2.38-5.16,3.52-.75.54-1.53,1.1-2.09,1.48-.62-.19-1.99-.74-4.27-2.35-3.05-2.15-6.28-5.16-9.13-7.82-.59-.55-1.17-1.09-1.73-1.61-5.13-4.74-9.17-8.76-12.3-12.93.75-2.62,2.55-5.92,4.54-9.57,1.71-3.14,3.65-6.7,5.3-10.59,1.79-4.21,1.83-8.97.1-13.21-1.99-4.87-4.4-10.05-6.73-15.06-.67-1.44-1.33-2.86-1.95-4.21-1.93-4.19-5.45-7.42-9.79-8.98-2.86-1.03-6.21-1.83-9.75-2.67-2.87-.68-8.17-1.95-11.34-3.15-1.69-8.65-1.76-21.42-.19-31.1.41-.13.8-.25,1.14-.35,1.74-.53,3.53-1.07,5.34-1.79,5.16-1.38,10.26-3.06,15.18-4.99,4.43-1.74,7.93-5.23,9.69-9.64,2.48-6.24,5.16-12.47,7.97-18.51,2.48-5.34,2.05-11.57-1.13-16.52-5.25-8.16-8.32-15.06-9.14-18.06.46-.84,1.53-2.46,3.89-4.98,2.91-3.09,6.48-6.14,9.34-8.58l.53-.46c3.64-2.77,7.4-5.44,11.2-7.96l.16.1c.81.53,1.75,1.14,2.76,1.8,5.35,3.52,9.38,6.13,12.65,7.74,2.38,1.17,4.97,1.76,7.58,1.76,1.63,0,3.27-.23,4.86-.7.58-.17,1.18-.35,1.8-.53,4.6-1.34,10.32-3.01,14.99-4.96l4.79-1.95c3.62-1.47,6.62-4.14,8.52-7.55,2.47-4.44,4.12-11.9,4.91-22.19.39-1.47.77-2.13.9-2.31.23-.12,1.13-.51,3.39-.79,3-.38,6.91-.39,11.04-.4,1.84,0,3.75-.01,5.73-.05l2.18-.04c2.42-.05,4.7-.09,6.72-.09,5.37,0,7.37.37,8.09.6.26.38.86,1.39,1.6,3.56l4.28,17.68c1.28,5.28,4.98,9.65,9.98,11.77.15.06.36.15.61.26,3.03,1.31,5.18,2.2,6.98,2.8,2.38,1.14,4.9,2.14,7.17,3.05.62.25,1.22.49,1.78.72,2.09.85,4.3,1.27,6.49,1.27,3.54,0,7.05-1.1,10.02-3.22,2.28-1.63,4.68-3.29,7.15-4.92l2.73-1.78c.05-.04.38-.25.43-.28l2.64-1.81c.43-.16.87-.24,1.32-.24,1.12,0,2.38.51,3.32.99,2.98,1.81,6.01,3.86,9.21,6.02.5.33.99.67,1.48,1,3.45,2.95,7.69,6.58,10.88,10.27,2.92,3.37,3.7,5.3,3.89,5.97-2.48,5.42-7.58,12.92-10.66,17.44-3.55,5.22-3.96,11.96-1.06,17.57,3.43,6.62,5.25,10.38,7.64,16.53,1.77,4.53,5.37,8.1,9.92,9.83,5.82,2.21,11.19,3.57,15.5,4.67,2.76.7,6.41,1.63,8.07,2.37.22.96.56,3.19.32,7.51-.22,4.03-.19,8.09-.17,12.01.03,4.29.05,8.36-.22,12.14-2.96,1.07-7.05,2.22-9.85,3-4.43,1.24-9.02,2.51-13.02,4.14-4.74,1.93-8.37,5.87-9.9,10.75-1.73,5.48-4.05,10.78-6.91,15.76-3.22,5.61-3.02,12.54.52,17.95l.62.95c3.36,5.13,6.55,10,9.12,14.9.02.08.03.15.04.22-5.22,7.23-12.65,14.48-22.66,22.12-2.06,1.57-3.23,1.91-3.41,1.91,0,0-.69-.03-2.51-1.03-2.41-1.33-5.34-3.54-8.44-5.89-1.64-1.24-3.34-2.53-5.15-3.83-2.97-2.14-6.49-3.23-10.03-3.23-2.4,0-4.81.5-7.07,1.52l-16.33,7.37c-5.17,2.33-8.85,7.06-9.84,12.64-.39,2.2-.72,4.51-1.03,6.75-.52,3.7-1.06,7.53-1.88,10.71-.63,2.45-1.21,3.64-1.49,4.12-.49.09-3.37.52-11.42.52ZM315.84,936.04c-2.25,0-4.54.11-6.79.32-18.89,1.8-35.95,10.85-48.03,25.49-12.08,14.64-17.72,33.11-15.89,52.01,3.54,36.57,33.89,64.15,70.59,64.15,2.33,0,4.69-.12,7.02-.35,38.89-3.83,67.46-38.59,63.69-77.48-3.54-36.57-33.89-64.14-70.58-64.14Z"/>
    <path class="st8" d="M389.98,966.83c-20.02-36.68-63.69-53.44-103.11-39.58-39.42,13.86-62.99,54.26-55.65,95.41,5.93,33.24,30.92,59.84,63.72,67.85,32.8,8,67.24-4.11,87.81-30.88,20.57-26.77,23.41-63.16,7.23-92.8ZM262.23,1012.21c-2.87-29.61,18.84-55.93,48.46-58.74,29.54-2.81,55.79,18.83,58.65,48.38,2.86,29.54-18.74,55.82-48.28,58.73-29.6,2.92-55.96-18.75-58.82-48.36Z"/>
    <path class="st2" d="M384.09,1001.46c-.76-3.58-.87-6.45-1.91-10.44-3.92-15.11-10.28-24.25-21.21-34.86-10.28-8.53-17.61-11.89-30.15-15.76-16.23-2.78-25.27-2.3-40.92,3.31-28.8,13.89-40.53,31.13-42.92,62.77.47,8.73,1,15.07,4.08,23.4,11.01,29.8,38.44,46.71,69.95,44.65,2.16-.13,4.32-.36,6.46-.67,26.88-3.33,48.91-24.76,55.05-50.74,1.8-7.6,1.73-13.96,1.57-21.65ZM321.05,1060.57c-29.6,2.92-55.96-18.75-58.82-48.36-2.87-29.61,18.84-55.93,48.46-58.74,29.54-2.81,55.79,18.83,58.65,48.38,2.86,29.54-18.74,55.82-48.28,58.73Z"/>
  </g>
  <g>
    <path class="st2" d="M849.56,952.95c-16.83-2.36-38.05-3.7-51.52,6.74l-2.7-52.86s-1-18.85-23.56-18.85-33.66,2.34-38.05,10.09v201.34s11.45,42.41,93.93,44.09c56.9,0,89.56-31.3,94.61-84.5,4.38-49.83-14.47-97.97-72.71-106.06ZM833.16,1094.8c-35.69,4.04-34-13.13-34-13.13v-68.78c0-5.16,10.45-14.04,27.28-13.36,29.96,1.34,29.96,36.69,29.96,36.69,0,0,7.07,54.54-23.24,58.58Z"/>
    <path class="st2" d="M946.85,985.27v140.06s4.71,13.47,16.5,13.8c11.78.34,34.34,0,34.34,0,0,0,11.45,2.36,11.45-11.78v-114.13s15.15-16.5,47.13-13.47c12.46.67,13.8-4.38,15.15-14.48,1.35-10.1,5.72-32.99-30.3-32.66-36.02.34-67.27.77-94.27,32.66Z"/>
    <path class="st2" d="M1221.92,1090.99c-15.83,9.43-68.01,18.85-84.86-20.87,0,0,85.86-7.75,95.63-10.09,9.77-2.36,32.66-18.53,18.17-59.94-14.47-41.41-58.24-54.2-102.01-47.47-35.01,5.72-71.03,37.39-71.71,95.97-.66,58.58,34.68,88.54,90.56,95.95,42.09,4.7,80.48-12.13,81.14-33.66.68-21.56-11.11-29.3-26.92-19.87ZM1161.98,998.06c21.21-3.36,31.32,6.4,38.39,25.26l-65.33,5.04s2.02-26.92,26.94-30.3Z"/>
    <path class="st2" d="M1265.46,970.01l39.05,152.63s5.39,21.1,43.99,18.85c26.93-2.24,32.32-4.49,39.05-34.57,6.73-30.08,15.26-70.48,15.26-70.48l20.65,80.35s6.28,24.58,42.65,24.86c26.04.28,39.05-6.9,43.09-25.31,4.04-18.41,31.42-137.81,31.42-137.81,0,0-3.14-25.82-28.73-25.93-25.59-.11-30.53,10.22-33.67,34.46-3.14,24.24-15.71,96.51-15.71,96.51l-19.75-92.03s-5.84-28.73-36.36-28.73-37.26,17.51-43.09,41.3c-5.84,23.79-17.96,78.56-17.96,78.56l-14.81-97.86s-1.35-33.45-32.32-32.21c-20.65,2.14-29.18,2.58-32.77,17.4Z"/>
    <path class="st2" d="M1837.36,952.58s-64.19-2.77-74.97,54.69c-.9,26.49,11.67,47.58,56.11,57.91,43.09,10.32,28.73,8.53,28.73,8.53,0,0,24.69,10.77-.45,22.45-15.71,6.73-45.79-1.8-57.01-7.63-11.22-5.84-15.26-4.94-19.3-.45-4.04,4.49-26.04,48.83,41.75,53.59,61.5,4.76,97.86-9.15,105.94-45.07,8.08-35.91-10.77-52.97-51.17-68.23-39.5-8.98-45.34-11.67-41.3-22,4.04-10.32,29.18-11.22,42.2-8.53,13.02,2.69,30.08,15.71,37.71,1.8,7.63-13.92,14.36-50.13-68.23-47.06Z"/>
    <path class="st2" d="M1648.19,952.4s-97.67-2.13-94.53,102.9c2.68,81.25,72.28,90.15,103.24,87.28,30.98-2.89,85.75-16.36,89.79-102.54-1.79-48.93-41.69-90.45-98.5-87.64ZM1648.38,1095.26c-20.21-.45-26.49-13.47-31.87-43.54-4.95-48.48,31.87-52.08,31.87-52.08,24.69,1.81,30.53,15.72,31.87,51.18,1.34,35.48-16.61,44.9-31.87,44.45Z"/>
  </g>
</svg>