<?xml version="1.0" encoding="UTF-8"?>
<svg id="Layer_1" xmlns="http://www.w3.org/2000/svg" version="1.1" viewBox="0 0 1080 250">
  <!-- Generator: Adobe Illustrator 30.0.0, SVG Export Plug-In . SVG Version: 2.1.1 Build 123)  -->
  <g>
    <path d="M458.16,98.81c-9.1-1.28-20.57-2-27.85,3.65l-1.46-28.57s-.54-10.19-12.73-10.19-18.2,1.27-20.57,5.45v108.84s6.19,22.93,50.77,23.83c30.76,0,48.42-16.92,51.14-45.68,2.37-26.94-7.82-52.96-39.31-57.33ZM449.29,175.49c-19.29,2.19-18.38-7.1-18.38-7.1v-37.18c0-2.79,5.65-7.59,14.75-7.22,16.2.72,16.2,19.83,16.2,19.83,0,0,3.82,29.48-12.56,31.67Z"/>
    <path d="M510.75,116.28v75.71s2.55,7.28,8.92,7.46c6.37.18,18.56,0,18.56,0,0,0,6.19,1.27,6.19-6.37v-61.7s8.19-8.92,25.48-7.28c6.73.36,7.46-2.37,8.19-7.83.73-5.46,3.09-17.84-16.38-17.65-19.47.18-36.37.41-50.96,17.65Z"/>
    <path d="M659.44,173.43c-8.56,5.1-36.76,10.19-45.87-11.28,0,0,46.41-4.19,51.69-5.45,5.28-1.28,17.66-10.02,9.82-32.4-7.82-22.38-31.48-29.3-55.14-25.66-18.92,3.09-38.4,20.21-38.76,51.88-.36,31.67,18.75,47.86,48.96,51.87,22.75,2.54,43.5-6.56,43.86-18.2.37-11.65-6-15.84-14.55-10.74ZM627.04,123.2c11.47-1.82,16.93,3.46,20.75,13.65l-35.31,2.73s1.09-14.55,14.56-16.38Z"/>
    <path d="M682.98,108.03l21.11,82.5s2.91,11.41,23.78,10.19c14.56-1.21,17.47-2.43,21.11-18.68,3.64-16.26,8.25-38.1,8.25-38.1l11.16,43.44s3.4,13.28,23.05,13.44c14.07.15,21.11-3.73,23.3-13.68,2.18-9.95,16.99-74.5,16.99-74.5,0,0-1.7-13.96-15.53-14.02-13.83-.06-16.5,5.52-18.2,18.63-1.7,13.1-8.49,52.17-8.49,52.17l-10.68-49.75s-3.15-15.53-19.66-15.53-20.14,9.46-23.3,22.32c-3.15,12.86-9.71,42.47-9.71,42.47l-8.01-52.9s-.73-18.08-17.47-17.41c-11.16,1.15-15.77,1.4-17.71,9.41Z"/>
    <path d="M992.13,98.61s-34.7-1.5-40.52,29.56c-.49,14.32,6.31,25.72,30.33,31.3,23.3,5.58,15.53,4.61,15.53,4.61,0,0,13.35,5.82-.24,12.13-8.49,3.64-24.75-.97-30.82-4.13-6.07-3.15-8.25-2.67-10.43-.24-2.18,2.43-14.07,26.4,22.57,28.97,33.24,2.57,52.9-4.95,57.27-24.36,4.37-19.41-5.82-28.63-27.66-36.88-21.35-4.85-24.51-6.31-22.32-11.89,2.18-5.58,15.77-6.07,22.81-4.61,7.04,1.46,16.26,8.49,20.38.97,4.13-7.52,7.77-27.1-36.88-25.44Z"/>
    <path d="M889.87,98.51s-52.8-1.15-51.1,55.62c1.45,43.92,39.07,48.73,55.81,47.18,16.75-1.56,46.35-8.84,48.54-55.43-.97-26.45-22.54-48.89-53.25-47.37ZM889.97,175.74c-10.93-.25-14.32-7.28-17.23-23.54-2.68-26.2,17.23-28.15,17.23-28.15,13.35.98,16.5,8.5,17.23,27.66.72,19.18-8.98,24.27-17.23,24.03Z"/>
  </g>
  <g>
    <path d="M206.54,128.7c-.41-1.93-.47-3.49-1.03-5.65-2.12-8.17-5.56-13.11-11.46-18.85-5.56-4.61-9.52-6.43-16.3-8.52-8.77-1.51-13.66-1.24-22.12,1.79-15.57,7.51-21.91,16.83-23.2,33.93.25,4.72.54,8.15,2.21,12.65,5.95,16.11,20.78,25.25,37.81,24.14,1.17-.07,2.33-.19,3.49-.36,14.53-1.8,26.44-13.38,29.76-27.43.97-4.11.93-7.55.85-11.7ZM172.46,160.65c-16,1.58-30.25-10.13-31.8-26.14-1.55-16.01,10.18-30.23,26.19-31.76,15.97-1.52,30.16,10.18,31.7,26.15,1.55,15.97-10.13,30.17-26.1,31.75Z"/>
    <path d="M295.51,51.09c52.59-16.85,77.49,32.5,55.87,77.3-9.33,19.33-31.48,38.79-51.06,46.92-8.79,3.65-26.24,6.4-31.88,10.44-7.69,5.51-17.68,25.79-28.05,31.7,9.59,2.23,21.26,1.13,30.09,6.47,11.87,7.18-5.8,11.92-12.06,13.6-36.2,9.67-152.71,12.22-185.47-3.73-19.98-9.72,21.67-16.14,28.59-16.34-21.61-18.21-38.43-42.28-46.83-69.52-8.85-28.69-14.15-76.32-10.14-105.84,1.85-13.68,10.56-19.73,22.69-24.26C112.63.89,240.4-1.44,283.04,21.72c12.19,6.62,13.42,16.14,12.48,29.37ZM282.74,42.44c8.48-7.77-15.84-15.58-21.51-17.31-44.51-13.58-129.35-13.63-174.4-2.01-6.15,1.59-22.58,6.39-26.93,9.81-3.91,3.07-5.97,8-.45,10.25,9.88,4.03,24.07-4.38,34.68-6.65,43.88-9.4,92.1-11.39,136.42-3.17,12.25,2.27,29.95,10.35,39.62,11.56,3.56.45,9.93-.06,12.58-2.49ZM150.53,38.87l-31.36,2.3-21.7,5.83,53.06-8.12ZM238.32,45c-15.44-3.03-31.05-7-46.94-6.13l40.36,7.6,6.57-1.47ZM115.83,67.45c-21.26-2.76-42.02-6.64-61.23-16.35-2.58,57.13,10.17,141.7,70.9,164.84,18.6,7.08,44.77,10.39,64.6,8.4,81.81-8.18,98.28-106.4,95.17-173.24-17.58,11.52-40.87,12.94-61.23,16.35-.93.74,12.88,12.95,13.38,17.3.84,7.14-8.46,13.29-4.24,21.5,2.87,5.59,15.4,4.71,18.99,11.64,3.42,6.59,3.72,26.95-2.91,30.88-4.51,2.68-10.16.36-14.79,5.6-9.42,10.66,2.77,14.08,1.89,22.18-.56,5.17-16.49,21.15-21.6,21.61-5.99.54-11.09-8.32-18.71-4.79-8.56,3.98-5.47,18.97-15.94,20.96-4.14.79-19.95.7-23.44-.97-6.91-3.3-5.06-19.68-15.79-21.16-7.61-1.05-8.84,10.45-20.85,2.68-2.44-1.58-15.6-14.7-16.14-16.67-2.25-8.19,7.67-11.96,3.58-19.58-7.25-13.49-21.49-1.89-20.28-26.98,1.22-25.26,15.89-15.74,21.07-28.1,2.24-5.36-3.01-6.88-4.19-11.12-3.15-11.33,6.68-16.4,11.78-24.98ZM277.14,171.51c40.41-3.44,94.78-67.11,61.33-103.16-13.37-14.41-43.96-18.52-42.95,7.24,48.95-17.64,49.2,34.02,21.49,61.31-12.43,12.24-36.57,16.22-39.87,34.62ZM226.57,143.45c5.07-5.75,18.51,4.12,15.98-15.9-1.38-10.92-9.64-5.64-15.39-11.18-.96-.92-5.97-10.69-6.34-12.21-2.62-10.62,14.64-18.36-5.92-30.12-8.93,4.2-7.82,9.67-18.84,6.09-15.28-4.96-15.17-19.55-22.02-20.89-19.02-3.72-10.76,17.85-31.58,21.65-10.36,1.89-12.96-6.65-18.38-4.38-14.5,6.09-4.16,17.38-4.05,24.54.18,13.1-8.8,19.53-20.62,20.63.83,3.49-.85,18.08.2,19.15.44.44,7.96-.24,12.11,3.2,1.88,1.56,7.34,12.2,7.84,14.73,1.71,8.7-6.39,15.12-2.73,20.91.35.56,9.89,7.9,10.54,8.02,3.34.62,5.28-6.12,11.91-6.15,15.02-.06,19.55,10.52,22.83,22.71l17.01-.1c-.04-12.75.74-17.11,13.19-20.48,15.41-4.17,23,8.74,33.22-7.03-2.34-5.61-6.23-9.55-5.56-16.16.12-1.17,6-16.36,6.6-17.04ZM287.35,142.94c20.13-8.96,41.33-27.43,36.67-52-1.58-8.36-9.36-10.25-16.81-8.79-17.16,3.38-10.02,14.81-11.93,26.89-.84,5.32-9.03,32.54-7.93,33.89Z"/>
  </g>
</svg>