<?xml version="1.0" encoding="UTF-8"?>
<svg id="Layer_1" xmlns="http://www.w3.org/2000/svg" version="1.1" viewBox="0 0 2000 2000">
  <!-- Generator: Adobe Illustrator 30.0.0, SVG Export Plug-In . SVG Version: 2.1.1 Build 123)  -->
  <g>
    <path d="M848.44,951.5c-16.85-2.36-38.09-3.71-51.57,6.75l-2.7-52.91s-1-18.87-23.58-18.87-33.7,2.34-38.09,10.1v201.55s11.46,42.46,94.03,44.14c56.96,0,89.66-31.34,94.71-84.59,4.39-49.89-14.49-98.07-72.79-106.17ZM832.02,1093.5c-35.72,4.05-34.04-13.14-34.04-13.14v-68.86c0-5.16,10.46-14.05,27.31-13.37,29.99,1.34,29.99,36.73,29.99,36.73,0,0,7.07,54.6-23.26,58.64Z"/>
    <path d="M945.83,983.86v140.2s4.72,13.48,16.51,13.82c11.8.34,34.38,0,34.38,0,0,0,11.46,2.36,11.46-11.8v-114.25s15.17-16.51,47.18-13.48c12.47.67,13.82-4.38,15.17-14.49s5.73-33.03-30.33-32.69c-36.06.34-67.34.77-94.37,32.69Z"/>
    <path d="M1221.19,1089.68c-15.85,9.44-68.08,18.87-84.95-20.9,0,0,85.95-7.75,95.73-10.1,9.78-2.36,32.7-18.55,18.19-60-14.49-41.45-58.3-54.26-102.12-47.52-35.04,5.73-71.11,37.42-71.79,96.07-.66,58.64,34.72,88.64,90.66,96.05,42.13,4.71,80.56-12.14,81.22-33.7.68-21.58-11.12-29.33-26.95-19.89ZM1161.19,996.66c21.24-3.37,31.35,6.41,38.43,25.28l-65.39,5.05s2.02-26.95,26.97-30.33Z"/>
    <path d="M1264.77,968.58l39.1,152.79s5.39,21.12,44.04,18.87c26.96-2.25,32.35-4.49,39.1-34.6,6.74-30.11,15.28-70.55,15.28-70.55l20.67,80.44s6.29,24.6,42.69,24.88c26.06.28,39.1-6.91,43.14-25.33,4.04-18.42,31.46-137.96,31.46-137.96,0,0-3.15-25.85-28.76-25.96-25.61-.11-30.56,10.23-33.7,34.49-3.15,24.27-15.73,96.62-15.73,96.62l-19.77-92.12s-5.84-28.76-36.4-28.76-37.3,17.53-43.14,41.34c-5.84,23.82-17.97,78.64-17.97,78.64l-14.83-97.96s-1.35-33.49-32.35-32.25c-20.67,2.14-29.21,2.59-32.8,17.42Z"/>
    <path d="M1837.27,951.13s-64.26-2.77-75.05,54.75c-.9,26.51,11.68,47.63,56.17,57.97,43.14,10.34,28.76,8.54,28.76,8.54,0,0,24.72,10.78-.45,22.47-15.73,6.74-45.84-1.8-57.07-7.64-11.23-5.84-15.28-4.94-19.32-.45-4.04,4.49-26.06,48.88,41.79,53.65,61.56,4.77,97.96-9.16,106.05-45.11,8.09-35.95-10.78-53.03-51.23-68.3-39.54-8.99-45.39-11.68-41.34-22.02,4.04-10.34,29.21-11.23,42.24-8.54,13.03,2.7,30.11,15.73,37.75,1.8,7.64-13.93,14.38-50.18-68.3-47.11Z"/>
    <path d="M1647.9,950.95s-97.77-2.14-94.63,103.01c2.69,81.34,72.35,90.24,103.35,87.37,31.01-2.89,85.84-16.38,89.88-102.65-1.8-48.98-41.74-90.55-98.6-87.73ZM1648.09,1093.96c-20.23-.45-26.51-13.48-31.9-43.59-4.95-48.53,31.9-52.14,31.9-52.14,24.72,1.82,30.56,15.73,31.9,51.23,1.34,35.52-16.62,44.95-31.9,44.5Z"/>
  </g>
  <g>
    <path d="M382.48,1006.85c-.76-3.58-.87-6.46-1.91-10.45-3.93-15.13-10.29-24.28-21.23-34.9-10.29-8.53-17.63-11.9-30.18-15.78-16.25-2.79-25.3-2.31-40.96,3.31-28.83,13.9-40.57,31.16-42.96,62.84.47,8.74,1,15.08,4.08,23.42,11.02,29.83,38.48,46.76,70.02,44.7,2.16-.13,4.32-.36,6.47-.67,26.91-3.33,48.96-24.78,55.11-50.79,1.8-7.6,1.73-13.97,1.57-21.67ZM319.37,1066.02c-29.64,2.92-56.02-18.77-58.89-48.41-2.87-29.64,18.86-55.99,48.51-58.81,29.57-2.82,55.85,18.85,58.71,48.43,2.86,29.57-18.76,55.88-48.33,58.79Z"/>
    <path d="M547.25,863.13c97.39-31.21,143.5,60.19,103.45,143.15-17.28,35.8-58.29,71.84-94.56,86.89-16.27,6.75-48.6,11.84-59.04,19.33-14.25,10.21-32.74,47.76-51.94,58.71,17.76,4.13,39.36,2.1,55.72,11.98,21.98,13.29-10.73,22.08-22.33,25.18-67.03,17.91-282.79,22.63-343.47-6.9-36.99-18.01,40.14-29.89,52.95-30.26-40.02-33.72-71.17-78.3-86.73-128.74-16.39-53.13-26.2-141.33-18.78-196,3.43-25.33,19.55-36.54,42.02-44.93,84.05-31.37,320.66-35.69,399.61,7.19,22.58,12.27,24.86,29.88,23.11,54.4ZM523.6,847.12c15.7-14.4-29.33-28.85-39.83-32.05-82.42-25.15-239.53-25.23-322.97-3.72-11.39,2.94-41.81,11.83-49.88,18.17-7.24,5.69-11.06,14.81-.84,18.99,18.3,7.47,44.58-8.11,64.22-12.31,81.26-17.41,170.56-21.1,252.62-5.88,22.68,4.21,55.46,19.16,73.37,21.41,6.59.83,18.39-.11,23.29-4.61ZM278.76,840.5l-58.07,4.25-40.19,10.79,98.26-15.04ZM441.34,851.85c-28.6-5.62-57.5-12.95-86.92-11.34l74.75,14.07,12.17-2.73ZM214.5,893.42c-39.36-5.11-77.82-12.3-113.38-30.28-4.77,105.79,18.83,262.41,131.31,305.26,34.44,13.12,82.91,19.23,119.62,15.56,151.5-15.14,182-197.03,176.23-320.82-32.55,21.33-75.69,23.96-113.39,30.28-1.72,1.38,23.84,23.99,24.78,32.03,1.55,13.22-15.67,24.62-7.86,39.81,5.32,10.35,28.51,8.73,35.16,21.56,6.33,12.21,6.89,49.9-5.39,57.19-8.36,4.96-18.82.67-27.4,10.38-17.45,19.74,5.12,26.07,3.49,41.07-1.04,9.58-30.53,39.16-40.01,40.02-11.09,1.01-20.55-15.42-34.65-8.86-15.85,7.36-10.13,35.12-29.52,38.82-7.67,1.46-36.95,1.29-43.41-1.8-12.8-6.12-9.37-36.45-29.24-39.19-14.1-1.94-16.38,19.36-38.61,4.96-4.52-2.93-28.9-27.23-29.9-30.87-4.16-15.16,14.2-22.16,6.63-36.25-13.42-24.98-39.8-3.51-37.56-49.96,2.26-46.77,29.43-29.15,39.01-52.03,4.15-9.92-5.58-12.75-7.76-20.6-5.83-20.98,12.38-30.36,21.82-46.27ZM513.21,1086.13c74.83-6.38,175.52-124.28,113.58-191.03-24.76-26.68-81.41-34.29-79.53,13.4,90.64-32.67,91.12,63,39.8,113.53-23.02,22.67-67.72,30.03-73.84,64.1ZM419.57,1034.16c9.39-10.64,34.27,7.64,29.59-29.45-2.55-20.23-17.85-10.45-28.51-20.7-1.78-1.71-11.05-19.8-11.75-22.61-4.86-19.67,27.11-34-10.97-55.77-16.53,7.77-14.49,17.91-34.9,11.28-28.29-9.19-28.08-36.2-40.79-38.68-35.22-6.89-19.92,33.05-58.48,40.09-19.18,3.5-24-12.32-34.03-8.1-26.86,11.28-7.7,32.19-7.51,45.44.34,24.26-16.3,36.17-38.19,38.2,1.54,6.47-1.57,33.49.38,35.46.82.82,14.73-.45,22.43,5.93,3.48,2.89,13.6,22.59,14.52,27.28,3.17,16.1-11.83,28-5.05,38.73.66,1.04,18.32,14.63,19.53,14.86,6.19,1.15,9.77-11.34,22.06-11.39,27.82-.11,36.21,19.49,42.28,42.06l31.5-.19c-.08-23.6,1.36-31.68,24.43-37.93,28.54-7.73,42.59,16.19,61.53-13.02-4.34-10.39-11.54-17.69-10.29-29.92.22-2.18,11.1-30.29,12.22-31.56ZM532.13,1033.23c37.27-16.6,76.53-50.79,67.91-96.29-2.93-15.48-17.34-18.98-31.13-16.27-31.78,6.25-18.55,27.42-22.1,49.8-1.56,9.85-16.73,60.26-14.69,62.76Z"/>
  </g>
</svg>